<svg width="284" height="210" viewBox="0 0 284 210" fill="none" xmlns="http://www.w3.org/2000/svg">
<path d="M268.797 0.953369H15.2035C6.81061 0.953369 0.00686646 7.75711 0.00686646 16.15V194.71C0.00686646 203.103 6.81061 209.906 15.2035 209.906H268.797C277.189 209.906 283.993 203.103 283.993 194.71V16.15C283.993 7.75711 277.189 0.953369 268.797 0.953369Z" fill="#111215"/>
<path d="M268.797 1.42798H15.2034C7.07288 1.42798 0.48175 8.01911 0.48175 16.1497V194.71C0.48175 202.84 7.07288 209.431 15.2034 209.431H268.797C276.927 209.431 283.518 202.84 283.518 194.71V16.1497C283.518 8.01911 276.927 1.42798 268.797 1.42798Z" fill="#1A1B1E"/>
<path fill-rule="evenodd" clip-rule="evenodd" d="M15.2035 1.90291C7.33517 1.90291 0.956653 8.28142 0.956653 16.1497V194.71C0.956653 202.578 7.33516 208.956 15.2035 208.956H268.797C276.665 208.956 283.043 202.578 283.043 194.71V16.1497C283.043 8.28142 276.665 1.90291 268.797 1.90291H15.2035ZM0.00686646 16.1497C0.00686646 7.75687 6.81061 0.953125 15.2035 0.953125H268.797C277.189 0.953125 283.993 7.75687 283.993 16.1497V194.71C283.993 203.103 277.189 209.906 268.797 209.906H15.2035C6.81061 209.906 0.00686646 203.103 0.00686646 194.71V16.1497Z" fill="url(#paint0_linear_157_2)"/>
<path opacity="0.8" fill-rule="evenodd" clip-rule="evenodd" d="M75.9898 117.777C75.9898 130.366 65.7842 140.572 53.1949 140.572C40.6057 140.572 30.4001 130.366 30.4001 117.777C30.4001 105.188 40.6057 94.9822 53.1949 94.9822C65.7842 94.9822 75.9898 105.188 75.9898 117.777ZM72.0254 117.777C72.0254 128.177 63.5947 136.608 53.1949 136.608C42.7951 136.608 34.3644 128.177 34.3644 117.777C34.3644 107.377 42.7951 98.9466 53.1949 98.9466C63.5947 98.9466 72.0254 107.377 72.0254 117.777Z" fill="white"/>
<mask id="mask0_157_2" style="mask-type:alpha" maskUnits="userSpaceOnUse" x="53" y="94" width="23" height="47">
<path fill-rule="evenodd" clip-rule="evenodd" d="M53.1949 94.9822H75.9898V140.572L53.1949 117.777V94.9822Z" fill="white"/>
</mask>
<g mask="url(#mask0_157_2)">
<path fill-rule="evenodd" clip-rule="evenodd" d="M75.9898 117.777C75.9898 130.366 65.7842 140.572 53.1949 140.572C40.6057 140.572 30.4001 130.366 30.4001 117.777C30.4001 105.188 40.6057 94.9822 53.1949 94.9822C65.7842 94.9822 75.9898 105.188 75.9898 117.777ZM72.0254 117.777C72.0254 128.177 63.5947 136.608 53.1949 136.608C42.7951 136.608 34.3644 128.177 34.3644 117.777C34.3644 107.377 42.7951 98.9466 53.1949 98.9466C63.5947 98.9466 72.0254 107.377 72.0254 117.777Z" fill="#4C4ACF"/>
</g>
<path fill-rule="evenodd" clip-rule="evenodd" d="M45.5966 117.777C45.5966 116.728 46.4471 115.878 47.4962 115.878H58.8937C59.9428 115.878 60.7932 116.728 60.7932 117.777C60.7932 118.827 59.9428 119.677 58.8937 119.677H47.4962C46.4471 119.677 45.5966 118.827 45.5966 117.777Z" fill="#4C4ACF"/>
<path fill-rule="evenodd" clip-rule="evenodd" d="M30.4001 150.07C30.4001 149.02 31.2505 148.17 32.2996 148.17H58.8937C59.9428 148.17 60.7932 149.02 60.7932 150.07C60.7932 151.119 59.9428 151.969 58.8937 151.969H32.2996C31.2505 151.969 30.4001 151.119 30.4001 150.07Z" fill="#6967E2"/>
<path fill-rule="evenodd" clip-rule="evenodd" d="M30.4001 159.568C30.4001 158.518 31.2505 157.668 32.2996 157.668H74.0903C75.1394 157.668 75.9898 158.518 75.9898 159.568C75.9898 160.617 75.1394 161.467 74.0903 161.467H32.2996C31.2505 161.467 30.4001 160.617 30.4001 159.568Z" fill="white"/>
<path fill-rule="evenodd" clip-rule="evenodd" d="M98.7847 150.07C98.7847 149.02 99.6348 148.17 100.684 148.17H157.671C158.721 148.17 159.571 149.02 159.571 150.07C159.571 151.119 158.721 151.969 157.671 151.969H100.684C99.6348 151.969 98.7847 151.119 98.7847 150.07Z" fill="white"/>
<path fill-rule="evenodd" clip-rule="evenodd" d="M98.7847 142.472C98.7847 141.422 99.6348 140.572 100.684 140.572H218.458C219.507 140.572 220.357 141.422 220.357 142.472C220.357 143.521 219.507 144.371 218.458 144.371H100.684C99.6348 144.371 98.7847 143.521 98.7847 142.472Z" fill="white"/>
<path fill-rule="evenodd" clip-rule="evenodd" d="M98.7847 98.7813C98.7847 96.6832 100.486 94.9822 102.584 94.9822H249.801C251.899 94.9822 253.6 96.6832 253.6 98.7813V129.175C253.6 131.273 251.899 132.974 249.801 132.974H102.584C100.486 132.974 98.7847 131.273 98.7847 129.175V98.7813Z" fill="#7A79CD"/>
<path fill-rule="evenodd" clip-rule="evenodd" d="M30.4001 53.1915C30.4001 51.0933 32.101 49.3923 34.1992 49.3923H249.801C251.899 49.3923 253.6 51.0933 253.6 53.1915V83.5847C253.6 85.6828 251.899 87.3838 249.801 87.3838H34.1992C32.101 87.3838 30.4001 85.6828 30.4001 83.5847V53.1915Z" fill="#7A79CD"/>
<defs>
<linearGradient id="paint0_linear_157_2" x1="142" y1="0.953125" x2="142" y2="209.906" gradientUnits="userSpaceOnUse">
<stop stop-color="#CEC3F9"/>
<stop offset="1" stop-color="#5B4BB9"/>
</linearGradient>
</defs>
</svg>
