<svg width="284" height="210" viewBox="0 0 284 210" fill="none" xmlns="http://www.w3.org/2000/svg">
<path d="M268.797 0.953369H15.2034C6.81058 0.953369 0.00683594 7.75711 0.00683594 16.15V194.71C0.00683594 203.103 6.81058 209.906 15.2034 209.906H268.797C277.189 209.906 283.993 203.103 283.993 194.71V16.15C283.993 7.75711 277.189 0.953369 268.797 0.953369Z" fill="#111215"/>
<path d="M268.797 1.42798H15.2034C7.07288 1.42798 0.48175 8.01911 0.48175 16.1497V194.71C0.48175 202.84 7.07288 209.431 15.2034 209.431H268.797C276.927 209.431 283.518 202.84 283.518 194.71V16.1497C283.518 8.01911 276.927 1.42798 268.797 1.42798Z" fill="#1A1B1E"/>
<path fill-rule="evenodd" clip-rule="evenodd" d="M15.2034 1.90291C7.33516 1.90291 0.956644 8.28142 0.956644 16.1497V194.71C0.956644 202.578 7.33516 208.956 15.2034 208.956H268.797C276.665 208.956 283.043 202.578 283.043 194.71V16.1497C283.043 8.28142 276.665 1.90291 268.797 1.90291H15.2034ZM0.00685692 16.1497C0.00685692 7.75687 6.8106 0.953125 15.2034 0.953125H268.797C277.189 0.953125 283.993 7.75687 283.993 16.1497V194.71C283.993 203.103 277.189 209.906 268.797 209.906H15.2034C6.8106 209.906 0.00685692 203.103 0.00685692 194.71V16.1497Z" fill="url(#paint0_linear_157_19)"/>
<path fill-rule="evenodd" clip-rule="evenodd" d="M61.743 63.6391C61.743 62.5899 62.5934 61.7395 63.6426 61.7395H90.2366C91.2857 61.7395 92.1362 62.5899 92.1362 63.6391C92.1362 64.6882 91.2857 65.5386 90.2366 65.5386H63.6426C62.5934 65.5386 61.743 64.6882 61.743 63.6391Z" fill="white"/>
<path fill-rule="evenodd" clip-rule="evenodd" d="M61.743 76.9361C61.743 74.8379 63.444 73.137 65.5421 73.137H111.132C113.23 73.137 114.931 74.8379 114.931 76.9361C114.931 79.0343 113.23 80.7353 111.132 80.7353H65.5421C63.444 80.7353 61.743 79.0343 61.743 76.9361Z" fill="#6967E2"/>
<path fill-rule="evenodd" clip-rule="evenodd" d="M61.743 105.43C61.743 104.381 62.5934 103.531 63.6426 103.531H113.031C114.081 103.531 114.931 104.381 114.931 105.43C114.931 106.48 114.081 107.33 113.031 107.33H63.6426C62.5934 107.33 61.743 106.48 61.743 105.43Z" fill="white"/>
<path fill-rule="evenodd" clip-rule="evenodd" d="M61.743 97.8315C61.743 96.7819 62.5934 95.9319 63.6426 95.9319H113.031C114.081 95.9319 114.931 96.7819 114.931 97.8315C114.931 98.881 114.081 99.731 113.031 99.731H63.6426C62.5934 99.731 61.743 98.881 61.743 97.8315Z" fill="white"/>
<path fill-rule="evenodd" clip-rule="evenodd" d="M61.743 113.028C61.743 111.979 62.5934 111.129 63.6426 111.129H82.6383C83.6874 111.129 84.5379 111.979 84.5379 113.028C84.5379 114.078 83.6874 114.928 82.6383 114.928H63.6426C62.5934 114.928 61.743 114.078 61.743 113.028Z" fill="white"/>
<path fill-rule="evenodd" clip-rule="evenodd" d="M145.324 63.6391C145.324 62.5899 146.174 61.7395 147.224 61.7395H173.818C174.867 61.7395 175.717 62.5899 175.717 63.6391C175.717 64.6882 174.867 65.5386 173.818 65.5386H147.224C146.174 65.5386 145.324 64.6882 145.324 63.6391Z" fill="#6967E2"/>
<path fill-rule="evenodd" clip-rule="evenodd" d="M145.324 76.9361C145.324 74.8379 147.025 73.137 149.123 73.137H217.508C219.606 73.137 221.307 74.8379 221.307 76.9361V84.5344C221.307 86.6326 219.606 88.3336 217.508 88.3336H149.123C147.025 88.3336 145.324 86.6326 145.324 84.5344V76.9361Z" fill="#7A79CD"/>
<path fill-rule="evenodd" clip-rule="evenodd" d="M145.324 97.8315C145.324 96.7819 146.174 95.9319 147.224 95.9319H181.416C182.466 95.9319 183.316 96.7819 183.316 97.8315C183.316 98.881 182.466 99.731 181.416 99.731H147.224C146.174 99.731 145.324 98.881 145.324 97.8315Z" fill="#6967E2"/>
<path fill-rule="evenodd" clip-rule="evenodd" d="M145.324 111.128C145.324 109.03 147.025 107.329 149.123 107.329H217.508C219.606 107.329 221.307 109.03 221.307 111.128V118.727C221.307 120.825 219.606 122.526 217.508 122.526H149.123C147.025 122.526 145.324 120.825 145.324 118.727V111.128Z" fill="#7A79CD"/>
<path fill-rule="evenodd" clip-rule="evenodd" d="M183.316 143.422C183.316 140.274 185.867 137.723 189.014 137.723H215.608C218.756 137.723 221.307 140.274 221.307 143.422C221.307 146.569 218.756 149.12 215.608 149.12H189.014C185.867 149.12 183.316 146.569 183.316 143.422Z" fill="#4C4ACF"/>
<path fill-rule="evenodd" clip-rule="evenodd" d="M192.814 143.422C192.814 142.897 193.239 142.472 193.763 142.472H210.86C211.384 142.472 211.809 142.897 211.809 143.422C211.809 143.946 211.384 144.371 210.86 144.371H193.763C193.239 144.371 192.814 143.946 192.814 143.422Z" fill="white"/>
<defs>
<linearGradient id="paint0_linear_157_19" x1="142" y1="0.953125" x2="142" y2="209.906" gradientUnits="userSpaceOnUse">
<stop stop-color="#CEC3F9"/>
<stop offset="1" stop-color="#5B4BB9"/>
</linearGradient>
</defs>
</svg>
