<svg width="39" height="56" viewBox="0 0 39 56" fill="none" xmlns="http://www.w3.org/2000/svg">
<path d="M32.1562 3.4375L29.8121 28.7151L19.6561 31.4375L9.49987 28.7151L7.15625 3.4375H32.1562ZM27.4327 8.5773H19.6469H11.7232L12.1022 11.6298H19.6469H20.0708L19.6469 11.8054L12.3779 14.8195L12.619 17.8032L19.6469 17.8259L23.4137 17.8378L23.1726 21.8162L19.6469 22.8044V22.8013L19.618 22.8093L16.2131 21.9536L16.0064 19.484H15.9952H12.8369H12.8258L13.2392 24.2515L19.647 26.138V26.1346L19.6586 26.138L26.032 24.2859L26.8588 14.8195H19.647H19.6292L19.647 14.8118L27.123 11.6298L27.4327 8.5773Z" fill="white"/>
<path d="M12.6194 49.7393H13.5112C13.4648 50.1885 13.3425 50.5905 13.1443 50.9453C12.9461 51.3001 12.6659 51.5817 12.3036 51.79C11.9413 51.9951 11.4893 52.0977 10.9474 52.0977C10.551 52.0977 10.1903 52.0195 9.86518 51.8633C9.54316 51.707 9.26603 51.4857 9.0338 51.1992C8.80157 50.9095 8.62197 50.5628 8.49502 50.1592C8.37116 49.7523 8.30923 49.2998 8.30923 48.8018V48.0938C8.30923 47.5957 8.37116 47.1449 8.49502 46.7412C8.62197 46.3343 8.80311 45.986 9.03844 45.6963C9.27687 45.4066 9.56328 45.1836 9.8977 45.0273C10.2321 44.8711 10.6083 44.793 11.0263 44.793C11.5373 44.793 11.9692 44.8939 12.3222 45.0957C12.6752 45.2975 12.9492 45.5775 13.1443 45.9355C13.3425 46.2904 13.4648 46.7021 13.5112 47.1709H12.6194C12.5761 46.8389 12.4956 46.554 12.3779 46.3164C12.2603 46.0755 12.0931 45.89 11.8763 45.7598C11.6596 45.6296 11.3762 45.5645 11.0263 45.5645C10.726 45.5645 10.4612 45.6247 10.2321 45.7451C10.0061 45.8656 9.81564 46.0365 9.66082 46.2578C9.5091 46.4792 9.39453 46.7445 9.31712 47.0537C9.23971 47.363 9.201 47.7064 9.201 48.084V48.8018C9.201 49.1501 9.23506 49.4772 9.30318 49.7832C9.3744 50.0892 9.48123 50.3577 9.62366 50.5889C9.7661 50.82 9.94724 51.0023 10.1671 51.1357C10.3869 51.266 10.647 51.3311 10.9474 51.3311C11.3282 51.3311 11.6317 51.2676 11.8577 51.1406C12.0838 51.0137 12.2541 50.8314 12.3686 50.5938C12.4863 50.3561 12.5699 50.0713 12.6194 49.7393Z" fill="white"/>
<path d="M18.337 50.2031C18.337 50.0371 18.3122 49.8906 18.2627 49.7637C18.2162 49.6335 18.1326 49.5163 18.0119 49.4121C17.8942 49.3079 17.7301 49.2087 17.5195 49.1143C17.3121 49.0199 17.0489 48.9238 16.7299 48.8262C16.3955 48.722 16.0936 48.6064 15.8242 48.4795C15.5549 48.3493 15.3242 48.2012 15.1322 48.0352C14.9402 47.8691 14.7931 47.6787 14.691 47.4639C14.5888 47.249 14.5377 47.0033 14.5377 46.7266C14.5377 46.4499 14.5919 46.1943 14.7002 45.96C14.8086 45.7256 14.9634 45.5221 15.1647 45.3496C15.3691 45.1738 15.6121 45.0371 15.8939 44.9395C16.1757 44.8418 16.49 44.793 16.8368 44.793C17.3446 44.793 17.775 44.8955 18.128 45.1006C18.4841 45.3024 18.755 45.5677 18.9408 45.8965C19.1266 46.222 19.2195 46.5703 19.2195 46.9414H18.3277C18.3277 46.6745 18.2735 46.4385 18.1651 46.2334C18.0568 46.0251 17.8926 45.8623 17.6728 45.7451C17.453 45.6247 17.1743 45.5645 16.8368 45.5645C16.5178 45.5645 16.2546 45.6149 16.0472 45.7158C15.8397 45.8167 15.6849 45.9535 15.5827 46.126C15.4836 46.2985 15.4341 46.4954 15.4341 46.7168C15.4341 46.8665 15.4635 47.0033 15.5223 47.127C15.5843 47.2474 15.6787 47.3597 15.8057 47.4639C15.9357 47.568 16.0998 47.6641 16.298 47.752C16.4993 47.8398 16.7392 47.9245 17.0179 48.0059C17.4019 48.1198 17.7332 48.2467 18.0119 48.3867C18.2905 48.5267 18.5197 48.6846 18.6993 48.8604C18.882 49.0329 19.0166 49.2298 19.1033 49.4512C19.1931 49.6693 19.238 49.9167 19.238 50.1934C19.238 50.4831 19.1823 50.7451 19.0708 50.9795C18.9594 51.2139 18.7999 51.4141 18.5924 51.5801C18.385 51.7461 18.1357 51.8747 17.8447 51.9658C17.5567 52.0537 17.2347 52.0977 16.8786 52.0977C16.5658 52.0977 16.2577 52.0521 15.9543 51.9609C15.6539 51.8698 15.3799 51.7331 15.1322 51.5508C14.8876 51.3685 14.691 51.1439 14.5423 50.877C14.3968 50.6068 14.324 50.2943 14.324 49.9395H15.2158C15.2158 50.1836 15.2607 50.3936 15.3505 50.5693C15.4403 50.7419 15.5626 50.8851 15.7174 50.999C15.8753 51.113 16.0534 51.1976 16.2515 51.2529C16.4528 51.305 16.6618 51.3311 16.8786 51.3311C17.1913 51.3311 17.4561 51.2855 17.6728 51.1943C17.8896 51.1032 18.0537 50.973 18.1651 50.8037C18.2797 50.6344 18.337 50.4342 18.337 50.2031Z" fill="white"/>
<path d="M23.9848 50.2031C23.9848 50.0371 23.9601 49.8906 23.9105 49.7637C23.8641 49.6335 23.7805 49.5163 23.6597 49.4121C23.5421 49.3079 23.378 49.2087 23.1674 49.1143C22.9599 49.0199 22.6967 48.9238 22.3778 48.8262C22.0434 48.722 21.7415 48.6064 21.4721 48.4795C21.2027 48.3493 20.972 48.2012 20.7801 48.0352C20.5881 47.8691 20.441 47.6787 20.3388 47.4639C20.2366 47.249 20.1855 47.0033 20.1855 46.7266C20.1855 46.4499 20.2397 46.1943 20.3481 45.96C20.4565 45.7256 20.6113 45.5221 20.8126 45.3496C21.0169 45.1738 21.26 45.0371 21.5418 44.9395C21.8236 44.8418 22.1378 44.793 22.4846 44.793C22.9924 44.793 23.4229 44.8955 23.7758 45.1006C24.1319 45.3024 24.4029 45.5677 24.5887 45.8965C24.7744 46.222 24.8673 46.5703 24.8673 46.9414H23.9756C23.9756 46.6745 23.9214 46.4385 23.813 46.2334C23.7046 46.0251 23.5405 45.8623 23.3207 45.7451C23.1008 45.6247 22.8221 45.5645 22.4846 45.5645C22.1657 45.5645 21.9025 45.6149 21.695 45.7158C21.4876 45.8167 21.3328 45.9535 21.2306 46.126C21.1315 46.2985 21.082 46.4954 21.082 46.7168C21.082 46.8665 21.1114 47.0033 21.1702 47.127C21.2321 47.2474 21.3266 47.3597 21.4535 47.4639C21.5836 47.568 21.7477 47.6641 21.9459 47.752C22.1471 47.8398 22.3871 47.9245 22.6658 48.0059C23.0497 48.1198 23.381 48.2467 23.6597 48.3867C23.9384 48.5267 24.1675 48.6846 24.3471 48.8604C24.5298 49.0329 24.6645 49.2298 24.7512 49.4512C24.841 49.6693 24.8859 49.9167 24.8859 50.1934C24.8859 50.4831 24.8302 50.7451 24.7187 50.9795C24.6072 51.2139 24.4478 51.4141 24.2403 51.5801C24.0328 51.7461 23.7836 51.8747 23.4925 51.9658C23.2046 52.0537 22.8825 52.0977 22.5264 52.0977C22.2137 52.0977 21.9056 52.0521 21.6022 51.9609C21.3018 51.8698 21.0278 51.7331 20.7801 51.5508C20.5354 51.3685 20.3388 51.1439 20.1902 50.877C20.0447 50.6068 19.9719 50.2943 19.9719 49.9395H20.8637C20.8637 50.1836 20.9086 50.3936 20.9984 50.5693C21.0882 50.7419 21.2105 50.8851 21.3653 50.999C21.5232 51.113 21.7012 51.1976 21.8994 51.2529C22.1007 51.305 22.3097 51.3311 22.5264 51.3311C22.8392 51.3311 23.1039 51.2855 23.3207 51.1943C23.5374 51.1032 23.7015 50.973 23.813 50.8037C23.9276 50.6344 23.9848 50.4342 23.9848 50.2031Z" fill="white"/>
<path d="M27.0596 48.001H27.6727C27.973 48.001 28.2207 47.9489 28.4158 47.8447C28.614 47.7373 28.7611 47.5924 28.8571 47.4102C28.9561 47.2246 29.0057 47.0163 29.0057 46.7852C29.0057 46.5117 28.9623 46.2822 28.8756 46.0967C28.7889 45.9111 28.6589 45.7712 28.4855 45.6768C28.3121 45.5824 28.0922 45.5352 27.826 45.5352C27.5844 45.5352 27.3708 45.5856 27.185 45.6865C27.0023 45.7842 26.8583 45.9242 26.753 46.1064C26.6509 46.2887 26.5998 46.5036 26.5998 46.751H25.7405C25.7405 46.3896 25.8272 46.0609 26.0006 45.7646C26.174 45.4684 26.4171 45.2324 26.7298 45.0566C27.0457 44.8809 27.411 44.793 27.826 44.793C28.2347 44.793 28.5923 44.8695 28.8989 45.0225C29.2054 45.1722 29.4438 45.3968 29.6141 45.6963C29.7844 45.9925 29.8696 46.362 29.8696 46.8047C29.8696 46.9837 29.8293 47.1758 29.7488 47.3809C29.6714 47.5827 29.5491 47.7715 29.3819 47.9473C29.2178 48.123 29.0041 48.2679 28.7409 48.3818C28.4778 48.4925 28.1619 48.5479 27.7934 48.5479H27.0596V48.001ZM27.0596 48.7432V48.2012H27.7934C28.2238 48.2012 28.5799 48.2549 28.8617 48.3623C29.1435 48.4697 29.3649 48.613 29.5259 48.792C29.69 48.971 29.8046 49.168 29.8696 49.3828C29.9377 49.5944 29.9718 49.806 29.9718 50.0176C29.9718 50.3496 29.9176 50.6442 29.8092 50.9014C29.7039 51.1585 29.5538 51.3766 29.3587 51.5557C29.1667 51.7347 28.9407 51.8698 28.6806 51.9609C28.4205 52.0521 28.1371 52.0977 27.8306 52.0977C27.5364 52.0977 27.2593 52.0537 26.9992 51.9658C26.7422 51.8779 26.5146 51.751 26.3165 51.585C26.1183 51.4157 25.9635 51.209 25.852 50.9648C25.7405 50.7174 25.6848 50.4359 25.6848 50.1201H26.544C26.544 50.3675 26.5951 50.584 26.6973 50.7695C26.8026 50.9551 26.9512 51.0999 27.1432 51.2041C27.3383 51.305 27.5674 51.3555 27.8306 51.3555C28.0938 51.3555 28.3198 51.3083 28.5087 51.2139C28.7007 51.1162 28.8478 50.9697 28.95 50.7744C29.0552 50.5791 29.1079 50.3333 29.1079 50.0371C29.1079 49.7409 29.049 49.4984 28.9314 49.3096C28.8137 49.1175 28.6465 48.9759 28.4298 48.8848C28.2161 48.7904 27.9637 48.7432 27.6727 48.7432H27.0596Z" fill="white"/>
</svg>
