<svg width="30" height="30" viewBox="0 0 30 30" fill="none" xmlns="http://www.w3.org/2000/svg">
<path d="M0 6.31579C0 2.82767 2.82768 0 6.31579 0H23.6842C27.1723 0 30 2.82768 30 6.31579V23.6842C30 27.1723 27.1723 30 23.6842 30H6.31579C2.82767 30 0 27.1723 0 23.6842V6.31579Z" fill="#383698"/>
<path d="M6.86626 18.7453L9.10208 9.30092H10.351L10.6363 10.8737L8.25401 20.5263H6.91252L6.86626 18.7453ZM5.71752 9.30092L7.56785 18.7453L7.41365 20.5263H5.91797L3.42773 9.30092H5.71752ZM12.6023 18.7068L14.4295 9.30092H16.7193L14.2367 20.5263H12.7411L12.6023 18.7068ZM11.0526 9.30092L13.3039 18.7839L13.2422 20.5263H11.9007L9.50298 10.866L9.81137 9.30092H11.0526Z" fill="#9694FF"/>
<path d="M23.8199 17.5889C23.8199 17.3884 23.7891 17.2085 23.7274 17.0492C23.6708 16.8847 23.5629 16.7356 23.4036 16.602C23.2442 16.4632 23.0207 16.327 22.7328 16.1934C22.445 16.0598 22.0724 15.921 21.6149 15.7771C21.1061 15.6126 20.6229 15.4276 20.1655 15.222C19.7132 15.0164 19.3123 14.7774 18.9628 14.505C18.6184 14.2274 18.346 13.9062 18.1456 13.5413C17.9502 13.1763 17.8526 12.7523 17.8526 12.2692C17.8526 11.8014 17.9554 11.3774 18.161 10.9971C18.3666 10.6116 18.6544 10.2826 19.0245 10.0102C19.3945 9.73267 19.8314 9.51936 20.3351 9.37031C20.844 9.22126 21.4016 9.14673 22.0081 9.14673C22.8356 9.14673 23.5578 9.29578 24.1745 9.59389C24.7913 9.892 25.2693 10.3006 25.6086 10.8197C25.9529 11.3389 26.1251 11.9325 26.1251 12.6007H23.8276C23.8276 12.2717 23.7582 11.9839 23.6194 11.7372C23.4858 11.4853 23.2802 11.2875 23.0027 11.1435C22.7303 10.9996 22.3859 10.9277 21.9696 10.9277C21.5687 10.9277 21.2346 10.9893 20.9673 11.1127C20.7 11.2309 20.4996 11.3928 20.366 11.5984C20.2323 11.7989 20.1655 12.025 20.1655 12.2769C20.1655 12.467 20.2118 12.6392 20.3043 12.7934C20.4019 12.9476 20.5458 13.0915 20.736 13.2252C20.9262 13.3588 21.1601 13.4847 21.4376 13.6029C21.7152 13.7212 22.0364 13.8368 22.4013 13.9499C23.013 14.1349 23.5501 14.3431 24.0126 14.5744C24.4804 14.8057 24.871 15.0652 25.1845 15.353C25.498 15.6409 25.7345 15.9672 25.8938 16.3322C26.0531 16.6971 26.1328 17.1109 26.1328 17.5734C26.1328 18.0617 26.0377 18.4986 25.8476 18.8841C25.6574 19.2696 25.3824 19.5959 25.0226 19.8632C24.6628 20.1305 24.2337 20.3335 23.7351 20.4723C23.2365 20.6111 22.6789 20.6804 22.0621 20.6804C21.507 20.6804 20.9596 20.6085 20.4199 20.4646C19.8802 20.3155 19.3894 20.0919 18.9474 19.7938C18.5105 19.4957 18.161 19.1154 17.8988 18.6528C17.6367 18.1902 17.5057 17.6428 17.5057 17.0106H19.8263C19.8263 17.3601 19.8802 17.6557 19.9882 17.8972C20.0961 18.1388 20.2477 18.3341 20.4431 18.4832C20.6435 18.6322 20.8799 18.7402 21.1523 18.807C21.4299 18.8738 21.7331 18.9072 22.0621 18.9072C22.463 18.9072 22.7919 18.8507 23.0489 18.7376C23.3111 18.6245 23.5038 18.4678 23.6272 18.2673C23.7557 18.0669 23.8199 17.8407 23.8199 17.5889Z" fill="#9694FF"/>
</svg>
