<svg width="32" height="56" viewBox="0 0 32 56" fill="none" xmlns="http://www.w3.org/2000/svg">
<path d="M3.01913 7.39109C2.86677 6.36314 3.64385 5.4375 4.65916 5.4375H27.341C28.3561 5.4375 29.1333 6.36316 28.9809 7.39109L26.0857 26.9238C26.0026 27.4839 25.6525 27.9648 25.152 28.206L16.7063 32.2758C16.259 32.4914 15.7411 32.4914 15.2937 32.2758L6.84806 28.206C6.34754 27.9648 5.99737 27.4839 5.91436 26.9238L3.01913 7.39109Z" stroke="white" stroke-width="3.8" stroke-linecap="round" stroke-linejoin="round"/>
<path d="M21 11.4375H12V17.1803H20.1818V22.9231L16.6987 24.3201C16.3085 24.4766 15.8733 24.4766 15.4832 24.3201L12 22.9231" stroke="white" stroke-width="3.8" stroke-linecap="round" stroke-linejoin="round"/>
<path d="M5.11621 47.9473V48.7139H1.26855V47.9473H5.11621ZM1.41504 44.8906V52H0.472656V44.8906H1.41504ZM5.93652 44.8906V52H4.99902V44.8906H5.93652Z" fill="white"/>
<path d="M10.0918 44.8906V52H9.16406V44.8906H10.0918ZM12.377 44.8906V45.6621H6.88379V44.8906H12.377Z" fill="white"/>
<path d="M13.7295 44.8906H14.6426L16.9717 50.6865L19.2959 44.8906H20.2139L17.3232 52H16.6104L13.7295 44.8906ZM13.4316 44.8906H14.2373L14.3691 49.2266V52H13.4316V44.8906ZM19.7012 44.8906H20.5068V52H19.5693V49.2266L19.7012 44.8906Z" fill="white"/>
<path d="M26.4736 51.2334V52H22.9189V51.2334H26.4736ZM23.1045 44.8906V52H22.1621V44.8906H23.1045Z" fill="white"/>
<path d="M28.4609 48.6162L27.7383 48.4307L28.0947 44.8906H31.7422V45.7256H28.8613L28.6465 47.6592C28.7767 47.5843 28.9411 47.5143 29.1396 47.4492C29.3415 47.3841 29.5726 47.3516 29.833 47.3516C30.1618 47.3516 30.4564 47.4085 30.7168 47.5225C30.9772 47.6331 31.1986 47.7926 31.3809 48.001C31.5664 48.2093 31.708 48.46 31.8057 48.7529C31.9033 49.0459 31.9521 49.373 31.9521 49.7344C31.9521 50.0762 31.9049 50.3903 31.8105 50.6768C31.7194 50.9632 31.5811 51.2139 31.3955 51.4287C31.21 51.6403 30.9756 51.8047 30.6924 51.9219C30.4124 52.0391 30.082 52.0977 29.7012 52.0977C29.4147 52.0977 29.1429 52.0586 28.8857 51.9805C28.6318 51.8991 28.404 51.777 28.2021 51.6143C28.0036 51.4482 27.8408 51.2432 27.7139 50.999C27.5902 50.7516 27.512 50.4619 27.4795 50.1299H28.3389C28.3779 50.3968 28.4561 50.6214 28.5732 50.8037C28.6904 50.986 28.8434 51.1243 29.0322 51.2188C29.2243 51.3099 29.4473 51.3555 29.7012 51.3555C29.916 51.3555 30.1064 51.318 30.2725 51.2432C30.4385 51.1683 30.5785 51.0609 30.6924 50.9209C30.8063 50.7809 30.8926 50.6117 30.9512 50.4131C31.013 50.2145 31.0439 49.9915 31.0439 49.7441C31.0439 49.5195 31.013 49.3112 30.9512 49.1191C30.8893 48.9271 30.7965 48.7594 30.6729 48.6162C30.5524 48.473 30.4043 48.3623 30.2285 48.2842C30.0527 48.2028 29.8509 48.1621 29.623 48.1621C29.3203 48.1621 29.0908 48.2028 28.9346 48.2842C28.7816 48.3656 28.6237 48.4762 28.4609 48.6162Z" fill="white"/>
</svg>
