<svg width="65" height="56" viewBox="0 0 65 56" fill="none" xmlns="http://www.w3.org/2000/svg">
<path d="M29.7027 21.4972L38.5713 16.3837L34.5422 14.0403L25.6796 19.1957L29.7027 21.4972ZM38.9791 11.0381L34.9458 8.69465V13.3345L38.9799 15.6788L38.9791 11.0381ZM39.3818 5.6454L35.3494 7.98887L39.3818 10.3323L43.4134 7.98801L39.3818 5.6454ZM26.9624 17.5084L29.3025 16.1473V5.92548L25.2684 8.27066V18.4925L26.9624 17.5084ZM24.8648 2.87709L20.8324 5.22141L24.8648 7.56574L28.8947 5.22141L24.8648 2.87709ZM20.4279 5.92634V21.731L29.2999 26.8891V22.203L24.6604 19.5512C24.6452 19.54 24.6333 19.5281 24.6172 19.5178C24.6053 19.5066 24.5918 19.4981 24.5799 19.4887L24.579 19.4861C24.5663 19.4732 24.5553 19.4595 24.546 19.4441L24.5451 19.4433C24.5333 19.4321 24.5239 19.4193 24.5155 19.4047L24.5146 19.4039H24.5121C24.5053 19.391 24.4985 19.3739 24.4917 19.3567L24.4909 19.3533C24.4849 19.3405 24.4782 19.3259 24.4722 19.3096L24.4714 19.3071C24.468 19.2899 24.4646 19.2685 24.4629 19.2471V19.2454C24.4603 19.2325 24.4578 19.2171 24.4561 19.2017V19.2009V8.27238L22.1186 6.91049L20.4279 5.92634ZM38.9799 21.7302V17.0861L30.1079 22.203V26.8882L38.9799 21.7302ZM43.8161 13.3345V8.69465L39.7837 11.039V15.6788L43.8161 13.3345ZM44.6097 7.88266C44.6191 7.9152 44.625 7.95203 44.625 7.99058V13.5692C44.625 13.7199 44.5445 13.851 44.4241 13.9212L44.4224 13.9221L39.7863 16.6193V21.9649C39.7863 22.1148 39.7057 22.2458 39.5862 22.3169L39.5845 22.3178L29.9053 27.9452C29.885 27.9563 29.8612 27.9666 29.8366 27.9734L29.8341 27.9743L29.8086 27.9854C29.7781 27.9949 29.7425 28 29.7061 28C29.6696 28 29.634 27.9949 29.6001 27.9846L29.6026 27.9854C29.5899 27.982 29.5797 27.9777 29.5695 27.9717L29.5704 27.9726C29.5441 27.9632 29.5221 27.9546 29.5009 27.9443L29.5043 27.946L19.8276 22.3186C19.7055 22.2467 19.625 22.1156 19.625 21.9657V5.22227C19.625 5.18458 19.6309 5.14775 19.6411 5.11349L19.6403 5.11606C19.6437 5.10321 19.6513 5.09465 19.6555 5.0818C19.6632 5.05696 19.6716 5.0364 19.681 5.0167L19.6801 5.01927C19.6869 5.00557 19.6954 4.99358 19.7047 4.9833L19.7403 4.93448L19.7802 4.90535C19.7954 4.89251 19.809 4.87966 19.8242 4.86852H19.8251L24.6647 2.05482C24.7223 2.02056 24.7919 2 24.8656 2C24.9394 2 25.0089 2.02056 25.0683 2.05567L25.0666 2.05482L29.9078 4.86852C29.924 4.87966 29.9375 4.89165 29.9511 4.9045L29.9918 4.93362C30.0054 4.94904 30.013 4.96617 30.0274 4.98244C30.0376 4.99272 30.046 5.00471 30.0537 5.01756L30.0545 5.01842C30.063 5.03555 30.0715 5.0561 30.0791 5.07752L30.08 5.08094L30.0935 5.1152C30.1029 5.14518 30.1088 5.1803 30.1088 5.21627C30.1088 5.21799 30.1088 5.2197 30.1088 5.22141V15.6779L34.1412 13.3336V7.98801C34.1412 7.98715 34.1412 7.9863 34.1412 7.9863C34.1412 7.94946 34.1463 7.91349 34.1556 7.87923L34.1548 7.8818C34.1582 7.87066 34.1658 7.86039 34.1683 7.84754C34.1768 7.82184 34.1853 7.80129 34.1955 7.78073L34.1938 7.78415C34.2014 7.77131 34.2133 7.76274 34.2209 7.74818C34.2336 7.73191 34.2438 7.71563 34.2565 7.70193C34.2684 7.69079 34.2811 7.68051 34.2947 7.67195L34.2955 7.67109C34.3108 7.65996 34.3235 7.64625 34.3396 7.63683H34.3405L39.18 4.82227C39.2377 4.78801 39.3072 4.76745 39.381 4.76745C39.4548 4.76745 39.5243 4.78801 39.5836 4.82313L39.5819 4.82227L44.4215 7.63683C44.4385 7.64797 44.4503 7.65996 44.4664 7.67024C44.4792 7.68137 44.4936 7.68994 44.5055 7.70021C44.519 7.71563 44.5292 7.73276 44.5419 7.74818C44.5512 7.75846 44.5597 7.77045 44.5673 7.78244L44.5682 7.7833C44.5784 7.80214 44.5868 7.82355 44.5936 7.84582L44.5945 7.84839C44.6013 7.85867 44.6063 7.86981 44.6106 7.8818L44.6097 7.88266Z" fill="white"/>
<path d="M16.7822 51.2334V52H13.2275V51.2334H16.7822ZM13.4131 44.8906V52H12.4707V44.8906H13.4131Z" fill="white"/>
<path d="M20.5908 45.5205L18.2373 52H17.2754L19.9854 44.8906H20.6055L20.5908 45.5205ZM22.5635 52L20.2051 45.5205L20.1904 44.8906H20.8105L23.5303 52H22.5635ZM22.4414 49.3682V50.1396H18.4473V49.3682H22.4414Z" fill="white"/>
<path d="M24.4824 44.8906H26.8359C27.3698 44.8906 27.8206 44.972 28.1885 45.1348C28.5596 45.2975 28.8411 45.5384 29.0332 45.8574C29.2285 46.1732 29.3262 46.5622 29.3262 47.0244C29.3262 47.3499 29.2594 47.6478 29.126 47.918C28.9958 48.1849 28.807 48.4128 28.5596 48.6016C28.3154 48.7871 28.0225 48.9255 27.6807 49.0166L27.417 49.1191H25.2051L25.1953 48.3525H26.8652C27.2038 48.3525 27.4854 48.2939 27.71 48.1768C27.9346 48.0563 28.1038 47.8952 28.2178 47.6934C28.3317 47.4915 28.3887 47.2686 28.3887 47.0244C28.3887 46.751 28.335 46.5117 28.2275 46.3066C28.1201 46.1016 27.9508 45.9437 27.7197 45.833C27.4919 45.7191 27.1973 45.6621 26.8359 45.6621H25.4248V52H24.4824V44.8906ZM28.6377 52L26.9092 48.7773L27.8906 48.7725L29.6436 51.9414V52H28.6377Z" fill="white"/>
<path d="M33.2764 45.5205L30.9229 52H29.9609L32.6709 44.8906H33.291L33.2764 45.5205ZM35.249 52L32.8906 45.5205L32.876 44.8906H33.4961L36.2158 52H35.249ZM35.127 49.3682V50.1396H31.1328V49.3682H35.127Z" fill="white"/>
<path d="M39.0332 50.9209L41.1279 44.8906H42.1484L39.5166 52H38.7891L39.0332 50.9209ZM37.0752 44.8906L39.1504 50.9209L39.4092 52H38.6816L36.0547 44.8906H37.0752Z" fill="white"/>
<path d="M47.6221 51.2334V52H43.8574V51.2334H47.6221ZM44.0479 44.8906V52H43.1055V44.8906H44.0479ZM47.124 47.9473V48.7139H43.8574V47.9473H47.124ZM47.5732 44.8906V45.6621H43.8574V44.8906H47.5732Z" fill="white"/>
<path d="M53.1006 51.2334V52H49.5459V51.2334H53.1006ZM49.7314 44.8906V52H48.7891V44.8906H49.7314Z" fill="white"/>
</svg>
