<svg width="149" height="29" viewBox="0 0 149 29" fill="none" xmlns="http://www.w3.org/2000/svg">
<path d="M0 28L11.025 3.5H15.505L26.565 28H21.805L12.32 5.915H14.14L4.69 28H0ZM5.075 22.33L6.3 18.76H19.53L20.755 22.33H5.075Z" fill="white"/>
<path d="M29.832 28V9.31H34.417L41.942 22.575H40.122L48.032 9.31H52.127L52.162 28H48.207V14L48.907 14.455L41.907 26.04H40.017L32.982 14.14L33.822 13.93V28H29.832Z" fill="white"/>
<path d="M66.7453 28.245C64.6686 28.245 62.8486 27.8367 61.2853 27.02C59.7453 26.18 58.5436 25.0367 57.6803 23.59C56.8403 22.1433 56.4203 20.4983 56.4203 18.655C56.4203 16.7883 56.8286 15.1433 57.6453 13.72C58.4853 12.2733 59.6286 11.1417 61.0753 10.325C62.5453 9.50833 64.2136 9.1 66.0803 9.1C67.9003 9.1 69.5219 9.49667 70.9453 10.29C72.3686 11.0833 73.4886 12.2033 74.3053 13.65C75.1219 15.0967 75.5303 16.8 75.5303 18.76C75.5303 18.9467 75.5186 19.1567 75.4953 19.39C75.4953 19.6233 75.4836 19.845 75.4603 20.055H59.8853V17.15H73.1503L71.4353 18.06C71.4586 16.9867 71.2369 16.0417 70.7703 15.225C70.3036 14.4083 69.6619 13.7667 68.8453 13.3C68.0519 12.8333 67.1303 12.6 66.0803 12.6C65.0069 12.6 64.0619 12.8333 63.2453 13.3C62.4519 13.7667 61.8219 14.42 61.3553 15.26C60.9119 16.0767 60.6903 17.045 60.6903 18.165V18.865C60.6903 19.985 60.9469 20.9767 61.4603 21.84C61.9736 22.7033 62.6969 23.3683 63.6303 23.835C64.5636 24.3017 65.6369 24.535 66.8503 24.535C67.9003 24.535 68.8453 24.3717 69.6853 24.045C70.5253 23.7183 71.2719 23.205 71.9253 22.505L74.2703 25.2C73.4303 26.18 72.3686 26.9383 71.0853 27.475C69.8253 27.9883 68.3786 28.245 66.7453 28.245Z" fill="white"/>
<path d="M77.3462 27.965L77.5562 24.29C77.7195 24.3133 77.8712 24.3367 78.0112 24.36C78.1512 24.3833 78.2795 24.395 78.3962 24.395C79.1195 24.395 79.6795 24.1733 80.0762 23.73C80.4728 23.2867 80.7645 22.6917 80.9512 21.945C81.1612 21.175 81.3012 20.3233 81.3712 19.39C81.4645 18.4333 81.5345 17.4767 81.5812 16.52L81.8962 9.31H97.0162V28H92.6412V11.83L93.6562 13.02H84.7662L85.7112 11.795L85.4662 16.73C85.3962 18.3867 85.2562 19.9267 85.0462 21.35C84.8595 22.75 84.5562 23.975 84.1362 25.025C83.7395 26.075 83.1795 26.8917 82.4562 27.475C81.7562 28.0583 80.8578 28.35 79.7612 28.35C79.4112 28.35 79.0262 28.315 78.6062 28.245C78.2095 28.175 77.7895 28.0817 77.3462 27.965Z" fill="white"/>
<path d="M102.908 28V9.31H107.283V21.63L117.608 9.31H121.598V28H117.223V15.68L106.933 28H102.908Z" fill="white"/>
<path d="M131 3.78947C131 1.6966 132.697 0 134.789 0H145.211C147.303 0 149 1.69661 149 3.78947V14.2105C149 16.3034 147.303 18 145.211 18H134.789C132.697 18 131 16.3034 131 14.2105V3.78947Z" fill="#383698"/>
<path d="M135.12 11.2472L136.461 5.58055H137.211L137.382 6.52422L135.952 12.3158H135.148L135.12 11.2472ZM134.431 5.58055L135.541 11.2472L135.448 12.3158H134.551L133.057 5.58055H134.431ZM138.561 11.2241L139.658 5.58055H141.032L139.542 12.3158H138.645L138.561 11.2241ZM137.632 5.58055L138.982 11.2703L138.945 12.3158H138.14L136.702 6.5196L136.887 5.58055H137.632Z" fill="#9694FF"/>
<path d="M145.292 10.5533C145.292 10.433 145.273 10.3251 145.236 10.2295C145.203 10.1308 145.138 10.0414 145.042 9.96121C144.947 9.87794 144.812 9.79622 144.64 9.71604C144.467 9.63586 144.243 9.55259 143.969 9.46624C143.664 9.36756 143.374 9.25654 143.099 9.13319C142.828 9.00983 142.587 8.86643 142.378 8.70298C142.171 8.53645 142.008 8.34371 141.887 8.12476C141.77 7.9058 141.712 7.65138 141.712 7.3615C141.712 7.08086 141.773 6.82644 141.897 6.59823C142.02 6.36694 142.193 6.16957 142.415 6.00613C142.637 5.8396 142.899 5.71162 143.201 5.62219C143.506 5.53275 143.841 5.48804 144.205 5.48804C144.701 5.48804 145.135 5.57747 145.505 5.75633C145.875 5.9352 146.162 6.18037 146.365 6.49184C146.572 6.80331 146.675 7.1595 146.675 7.56041H145.297C145.297 7.36304 145.255 7.19034 145.172 7.04231C145.091 6.8912 144.968 6.77247 144.802 6.68613C144.638 6.59978 144.432 6.5566 144.182 6.5566C143.941 6.5566 143.741 6.59361 143.58 6.66762C143.42 6.73855 143.3 6.83569 143.22 6.95905C143.139 7.07932 143.099 7.21501 143.099 7.36612C143.099 7.48022 143.127 7.58353 143.183 7.67605C143.241 7.76857 143.328 7.85492 143.442 7.9351C143.556 8.01528 143.696 8.09083 143.863 8.16176C144.029 8.23269 144.222 8.30208 144.441 8.36992C144.808 8.48094 145.13 8.60584 145.408 8.74462C145.688 8.88339 145.923 9.03913 146.111 9.21182C146.299 9.38452 146.441 9.58035 146.536 9.7993C146.632 10.0183 146.68 10.2665 146.68 10.5441C146.68 10.837 146.623 11.0992 146.509 11.3305C146.394 11.5617 146.229 11.7576 146.014 11.9179C145.798 12.0783 145.54 12.2001 145.241 12.2834C144.942 12.3666 144.607 12.4083 144.237 12.4083C143.904 12.4083 143.576 12.3651 143.252 12.2787C142.928 12.1893 142.634 12.0552 142.368 11.8763C142.106 11.6974 141.897 11.4692 141.739 11.1917C141.582 10.9141 141.503 10.5857 141.503 10.2064H142.896C142.896 10.4161 142.928 10.5934 142.993 10.7383C143.058 10.8833 143.149 11.0005 143.266 11.0899C143.386 11.1793 143.528 11.2441 143.691 11.2842C143.858 11.3243 144.04 11.3443 144.237 11.3443C144.478 11.3443 144.675 11.3104 144.829 11.2426C144.987 11.1747 145.102 11.0807 145.176 10.9604C145.253 10.8401 145.292 10.7044 145.292 10.5533Z" fill="#9694FF"/>
</svg>
