<svg width="209" height="30" viewBox="0 0 209 30" fill="none" xmlns="http://www.w3.org/2000/svg">
<path d="M131 5.5C131 2.73858 133.239 0.5 136 0.5H204C206.761 0.5 209 2.73858 209 5.5V14.5C209 17.2614 206.761 19.5 204 19.5H136C133.239 19.5 131 17.2614 131 14.5V5.5Z" fill="#383698"/>
<path d="M138.912 12.8652L140.611 5.96875H141.531L141.59 7.42188L139.773 14.5H138.801L138.912 12.8652ZM137.84 5.96875L139.234 12.8418V14.5H138.174L136.24 5.96875H137.84ZM143.354 12.8125L144.725 5.96875H146.33L144.396 14.5H143.336L143.354 12.8125ZM141.971 5.96875L143.67 12.8887L143.77 14.5H142.797L140.986 7.41602L141.057 5.96875H141.971Z" fill="#9694FF"/>
<path d="M153.004 13.2344V14.5H148.469V13.2344H153.004ZM148.961 5.96875V14.5H147.35V5.96875H148.961ZM152.412 9.49023V10.7266H148.469V9.49023H152.412ZM152.986 5.96875V7.24023H148.469V5.96875H152.986Z" fill="#9694FF"/>
<path d="M157.393 10.6973H155.213L155.201 9.56055H157.07C157.391 9.56055 157.658 9.51562 157.873 9.42578C158.088 9.33594 158.25 9.20508 158.359 9.0332C158.473 8.86133 158.529 8.65234 158.529 8.40625C158.529 8.13281 158.477 7.91016 158.371 7.73828C158.27 7.56641 158.109 7.44141 157.891 7.36328C157.672 7.28125 157.395 7.24023 157.059 7.24023H155.734V14.5H154.123V5.96875H157.059C157.543 5.96875 157.975 6.01562 158.354 6.10938C158.736 6.19922 159.061 6.33984 159.326 6.53125C159.592 6.72266 159.793 6.96289 159.93 7.25195C160.07 7.54102 160.141 7.88477 160.141 8.2832C160.141 8.63477 160.059 8.95898 159.895 9.25586C159.734 9.54883 159.486 9.78711 159.15 9.9707C158.818 10.1543 158.396 10.2598 157.885 10.2871L157.393 10.6973ZM157.322 14.5H154.738L155.412 13.2344H157.322C157.643 13.2344 157.906 13.1816 158.113 13.0762C158.324 12.9707 158.48 12.8262 158.582 12.6426C158.688 12.4551 158.74 12.2402 158.74 11.998C158.74 11.7324 158.693 11.502 158.6 11.3066C158.51 11.1113 158.365 10.9609 158.166 10.8555C157.971 10.75 157.713 10.6973 157.393 10.6973H155.717L155.729 9.56055H157.861L158.23 10C158.723 10.0039 159.123 10.1016 159.432 10.293C159.744 10.4844 159.975 10.7305 160.123 11.0312C160.271 11.332 160.346 11.6562 160.346 12.0039C160.346 12.5508 160.227 13.0098 159.988 13.3809C159.754 13.752 159.41 14.0312 158.957 14.2188C158.508 14.4062 157.963 14.5 157.322 14.5Z" fill="#9694FF"/>
<path d="M169.193 12.2852C169.193 12.1211 169.168 11.9746 169.117 11.8457C169.07 11.7129 168.982 11.5938 168.854 11.4883C168.729 11.3789 168.551 11.2734 168.32 11.1719C168.094 11.0664 167.801 10.957 167.441 10.8438C167.043 10.7188 166.672 10.5781 166.328 10.4219C165.984 10.2656 165.682 10.084 165.42 9.87695C165.162 9.66992 164.961 9.43164 164.816 9.16211C164.672 8.88867 164.6 8.57227 164.6 8.21289C164.6 7.86133 164.674 7.54102 164.822 7.25195C164.975 6.96289 165.189 6.71484 165.467 6.50781C165.744 6.29688 166.07 6.13477 166.445 6.02148C166.824 5.9082 167.242 5.85156 167.699 5.85156C168.332 5.85156 168.879 5.9668 169.34 6.19727C169.805 6.42773 170.164 6.74023 170.418 7.13477C170.672 7.5293 170.799 7.97266 170.799 8.46484H169.193C169.193 8.19922 169.137 7.96484 169.023 7.76172C168.914 7.55859 168.746 7.39844 168.52 7.28125C168.297 7.16406 168.016 7.10547 167.676 7.10547C167.348 7.10547 167.074 7.1543 166.855 7.25195C166.641 7.34961 166.479 7.48242 166.369 7.65039C166.264 7.81836 166.211 8.00586 166.211 8.21289C166.211 8.36914 166.248 8.50977 166.322 8.63477C166.396 8.75586 166.508 8.87109 166.656 8.98047C166.805 9.08594 166.988 9.18555 167.207 9.2793C167.43 9.36914 167.688 9.45898 167.98 9.54883C168.449 9.68945 168.859 9.8457 169.211 10.0176C169.566 10.1895 169.861 10.3848 170.096 10.6035C170.334 10.8223 170.512 11.0684 170.629 11.3418C170.75 11.6152 170.811 11.9258 170.811 12.2734C170.811 12.6406 170.738 12.9688 170.594 13.2578C170.449 13.5469 170.242 13.793 169.973 13.9961C169.703 14.1992 169.379 14.3535 169 14.459C168.625 14.5645 168.205 14.6172 167.74 14.6172C167.326 14.6172 166.916 14.5625 166.51 14.4531C166.107 14.3398 165.742 14.1719 165.414 13.9492C165.086 13.7227 164.824 13.4375 164.629 13.0938C164.434 12.7461 164.336 12.3398 164.336 11.875H165.953C165.953 12.1445 165.996 12.375 166.082 12.5664C166.172 12.7539 166.297 12.9082 166.457 13.0293C166.621 13.1465 166.812 13.2324 167.031 13.2871C167.25 13.3418 167.486 13.3691 167.74 13.3691C168.068 13.3691 168.338 13.3242 168.549 13.2344C168.764 13.1406 168.924 13.0117 169.029 12.8477C169.139 12.6836 169.193 12.4961 169.193 12.2852Z" fill="#9694FF"/>
<path d="M175.715 5.96875V14.5H174.109V5.96875H175.715ZM178.363 5.96875V7.24023H171.49V5.96875H178.363Z" fill="#9694FF"/>
<path d="M184.182 5.96875H185.793V11.6348C185.793 12.2871 185.652 12.8359 185.371 13.2812C185.09 13.7227 184.707 14.0566 184.223 14.2832C183.738 14.5059 183.188 14.6172 182.57 14.6172C181.945 14.6172 181.389 14.5059 180.9 14.2832C180.412 14.0566 180.029 13.7227 179.752 13.2812C179.475 12.8359 179.336 12.2871 179.336 11.6348V5.96875H180.947V11.6348C180.947 12.0332 181.014 12.3594 181.146 12.6133C181.279 12.8633 181.467 13.0488 181.709 13.1699C181.951 13.291 182.238 13.3516 182.57 13.3516C182.906 13.3516 183.193 13.291 183.432 13.1699C183.674 13.0488 183.859 12.8633 183.988 12.6133C184.117 12.3594 184.182 12.0332 184.182 11.6348V5.96875Z" fill="#9694FF"/>
<path d="M189.871 14.5H188.031L188.043 13.2344H189.871C190.367 13.2344 190.783 13.125 191.119 12.9062C191.455 12.6836 191.709 12.3652 191.881 11.9512C192.053 11.5332 192.139 11.0332 192.139 10.4512V10.0117C192.139 9.5625 192.09 9.16602 191.992 8.82227C191.895 8.47852 191.75 8.18945 191.559 7.95508C191.371 7.7207 191.139 7.54297 190.861 7.42188C190.584 7.30078 190.266 7.24023 189.906 7.24023H187.996V5.96875H189.906C190.477 5.96875 190.996 6.06445 191.465 6.25586C191.938 6.44727 192.346 6.72266 192.689 7.08203C193.037 7.4375 193.303 7.86328 193.486 8.35938C193.674 8.85547 193.768 9.41016 193.768 10.0234V10.4512C193.768 11.0605 193.674 11.6152 193.486 12.1152C193.303 12.6113 193.037 13.0371 192.689 13.3926C192.346 13.748 191.936 14.0215 191.459 14.2129C190.982 14.4043 190.453 14.5 189.871 14.5ZM188.934 5.96875V14.5H187.322V5.96875H188.934Z" fill="#9694FF"/>
<path d="M196.855 5.96875V14.5H195.244V5.96875H196.855Z" fill="#9694FF"/>
<path d="M205.504 10.0176V10.457C205.504 11.1016 205.418 11.6816 205.246 12.1973C205.074 12.709 204.83 13.1445 204.514 13.5039C204.197 13.8633 203.82 14.1387 203.383 14.3301C202.945 14.5215 202.459 14.6172 201.924 14.6172C201.396 14.6172 200.912 14.5215 200.471 14.3301C200.033 14.1387 199.654 13.8633 199.334 13.5039C199.014 13.1445 198.766 12.709 198.59 12.1973C198.414 11.6816 198.326 11.1016 198.326 10.457V10.0176C198.326 9.36914 198.414 8.78906 198.59 8.27734C198.766 7.76562 199.012 7.33008 199.328 6.9707C199.645 6.60742 200.021 6.33008 200.459 6.13867C200.9 5.94727 201.385 5.85156 201.912 5.85156C202.447 5.85156 202.934 5.94727 203.371 6.13867C203.809 6.33008 204.186 6.60742 204.502 6.9707C204.822 7.33008 205.068 7.76562 205.24 8.27734C205.416 8.78906 205.504 9.36914 205.504 10.0176ZM203.875 10.457V10.0059C203.875 9.54102 203.832 9.13281 203.746 8.78125C203.66 8.42578 203.533 8.12695 203.365 7.88477C203.197 7.64258 202.99 7.46094 202.744 7.33984C202.498 7.21484 202.221 7.15234 201.912 7.15234C201.6 7.15234 201.322 7.21484 201.08 7.33984C200.842 7.46094 200.639 7.64258 200.471 7.88477C200.303 8.12695 200.174 8.42578 200.084 8.78125C199.998 9.13281 199.955 9.54102 199.955 10.0059V10.457C199.955 10.918 199.998 11.3262 200.084 11.6816C200.174 12.0371 200.303 12.3379 200.471 12.584C200.643 12.8262 200.85 13.0098 201.092 13.1348C201.334 13.2598 201.611 13.3223 201.924 13.3223C202.236 13.3223 202.514 13.2598 202.756 13.1348C202.998 13.0098 203.201 12.8262 203.365 12.584C203.533 12.3379 203.66 12.0371 203.746 11.6816C203.832 11.3262 203.875 10.918 203.875 10.457Z" fill="#9694FF"/>
<path d="M0.315002 29.5L11.34 5H15.82L26.88 29.5H22.12L12.635 7.415H14.455L5.005 29.5H0.315002ZM5.39 23.83L6.615 20.26H19.845L21.07 23.83H5.39Z" fill="white"/>
<path d="M30.147 29.5V10.81H34.732L42.257 24.075H40.437L48.347 10.81H52.442L52.477 29.5H48.522V15.5L49.222 15.955L42.222 27.54H40.332L33.297 15.64L34.137 15.43V29.5H30.147Z" fill="white"/>
<path d="M67.0603 29.745C64.9836 29.745 63.1636 29.3367 61.6003 28.52C60.0603 27.68 58.8586 26.5367 57.9953 25.09C57.1553 23.6433 56.7353 21.9983 56.7353 20.155C56.7353 18.2883 57.1436 16.6433 57.9603 15.22C58.8003 13.7733 59.9436 12.6417 61.3903 11.825C62.8603 11.0083 64.5286 10.6 66.3953 10.6C68.2153 10.6 69.8369 10.9967 71.2603 11.79C72.6836 12.5833 73.8036 13.7033 74.6203 15.15C75.4369 16.5967 75.8453 18.3 75.8453 20.26C75.8453 20.4467 75.8336 20.6567 75.8103 20.89C75.8103 21.1233 75.7986 21.345 75.7753 21.555H60.2003V18.65H73.4653L71.7503 19.56C71.7736 18.4867 71.5519 17.5417 71.0853 16.725C70.6186 15.9083 69.9769 15.2667 69.1603 14.8C68.3669 14.3333 67.4453 14.1 66.3953 14.1C65.3219 14.1 64.3769 14.3333 63.5603 14.8C62.7669 15.2667 62.1369 15.92 61.6703 16.76C61.2269 17.5767 61.0053 18.545 61.0053 19.665V20.365C61.0053 21.485 61.2619 22.4767 61.7753 23.34C62.2886 24.2033 63.0119 24.8683 63.9453 25.335C64.8786 25.8017 65.9519 26.035 67.1653 26.035C68.2153 26.035 69.1603 25.8717 70.0003 25.545C70.8403 25.2183 71.5869 24.705 72.2403 24.005L74.5853 26.7C73.7453 27.68 72.6836 28.4383 71.4003 28.975C70.1403 29.4883 68.6936 29.745 67.0603 29.745Z" fill="white"/>
<path d="M77.6612 29.465L77.8712 25.79C78.0345 25.8133 78.1862 25.8367 78.3262 25.86C78.4662 25.8833 78.5945 25.895 78.7112 25.895C79.4345 25.895 79.9945 25.6733 80.3912 25.23C80.7878 24.7867 81.0795 24.1917 81.2662 23.445C81.4762 22.675 81.6162 21.8233 81.6862 20.89C81.7795 19.9333 81.8495 18.9767 81.8962 18.02L82.2112 10.81H97.3312V29.5H92.9562V13.33L93.9712 14.52H85.0812L86.0262 13.295L85.7812 18.23C85.7112 19.8867 85.5712 21.4267 85.3612 22.85C85.1745 24.25 84.8712 25.475 84.4512 26.525C84.0545 27.575 83.4945 28.3917 82.7712 28.975C82.0712 29.5583 81.1728 29.85 80.0762 29.85C79.7262 29.85 79.3412 29.815 78.9212 29.745C78.5245 29.675 78.1045 29.5817 77.6612 29.465Z" fill="white"/>
<path d="M103.223 29.5V10.81H107.598V23.13L117.923 10.81H121.913V29.5H117.538V17.18L107.248 29.5H103.223Z" fill="white"/>
</svg>
