<svg width="40" height="56" viewBox="0 0 40 56" fill="none" xmlns="http://www.w3.org/2000/svg">
<mask id="mask0_1_762" style="mask-type:luminance" maskUnits="userSpaceOnUse" x="3" y="0" width="33" height="32">
<path d="M35.7188 0H3.71875V32H35.7188V0Z" fill="white"/>
</mask>
<g mask="url(#mask0_1_762)">
<path fill-rule="evenodd" clip-rule="evenodd" d="M33.1945 24.9269C31.454 24.8784 30.1038 25.0568 28.9722 25.5329C28.6463 25.6638 28.1234 25.6638 28.0805 26.0739C28.2546 26.246 28.2756 26.5276 28.4283 26.7661C28.6893 27.199 29.1468 27.7822 29.56 28.0847L30.9526 29.0799C31.8013 29.5986 32.7589 29.9016 33.5857 30.4207C34.0647 30.7237 34.5432 31.113 35.0222 31.4378C35.2661 31.6108 35.4139 31.8925 35.7188 32.0001V31.9346C35.5666 31.7407 35.5227 31.4596 35.371 31.2424L34.7173 30.6156C34.0866 29.7721 33.3027 29.0362 32.454 28.4313C31.7574 27.9552 30.2346 27.3066 29.9517 26.5068L29.9087 26.4583C30.3868 26.4098 30.9526 26.2416 31.4101 26.1117C32.1506 25.9178 32.8247 25.9604 33.5857 25.766L34.631 25.4631V25.2692C34.2393 24.8799 33.9564 24.3607 33.5432 23.9933C32.4335 23.0417 31.214 22.1114 29.9517 21.3329C29.277 20.9005 28.4063 20.6188 27.6883 20.2519C27.4264 20.122 26.9918 20.057 26.8396 19.8408C26.4469 19.3657 26.2298 18.738 25.9469 18.1751L24.1626 14.4119C23.7709 13.5684 23.5309 12.725 23.0529 11.9464C20.811 8.26951 18.3731 6.04202 14.6298 3.8572C13.8249 3.40298 12.8674 3.20762 11.8494 2.97008L10.2173 2.88283C9.86856 2.73158 9.52077 2.3205 9.21591 2.12563C7.97547 1.3471 4.77608 -0.339877 3.86148 1.88325C3.2737 3.28906 4.73218 4.67305 5.22728 5.38711C5.598 5.88448 6.07603 6.4468 6.33797 7.00913C6.4843 7.37657 6.53309 7.76632 6.68576 8.15559C7.03355 9.10718 7.36037 10.1674 7.81743 11.0545C8.06132 11.5087 8.31741 11.9852 8.62227 12.3958C8.79641 12.6382 9.10128 12.7419 9.16615 13.1312C8.86128 13.5641 8.84031 14.2122 8.66617 14.7537C7.8823 17.1979 8.18717 20.2257 9.29688 22.0251C9.64565 22.5656 10.4675 23.7557 11.5826 23.301C12.5621 22.9118 12.3435 21.679 12.6265 20.5975C12.6923 20.3382 12.6484 20.1651 12.7786 19.9916V20.04L13.6713 21.8351C14.3459 22.8948 15.5215 23.9981 16.5005 24.734C17.0224 25.1232 17.436 25.7942 18.0887 26.0317V25.9662H18.0458C17.915 25.7723 17.7189 25.6851 17.5448 25.5338C17.1531 25.1446 16.718 24.6685 16.4131 24.2361C15.4995 23.0252 14.6947 21.6839 13.9762 20.2999C13.6274 19.6294 13.3225 18.894 13.0406 18.2236C12.9089 17.9638 12.9089 17.574 12.6918 17.4451C12.365 17.9202 11.887 18.3322 11.6465 18.9159C11.2329 19.8456 11.1899 20.9921 11.0377 22.1817C10.9499 22.2035 10.989 22.1817 10.9499 22.2302C10.2544 22.0576 10.0144 21.3431 9.75345 20.7381C9.10079 19.2024 8.99152 16.7369 9.55736 14.9631C9.70955 14.5089 10.3631 13.0813 10.1022 12.6489C9.97051 12.2378 9.53638 12.0002 9.29639 11.6755C9.01347 11.2644 8.70958 10.7457 8.51349 10.2915C7.99156 9.07955 7.7306 7.73918 7.16428 6.52776C6.90234 5.96543 6.44577 5.38129 6.07554 4.8626C5.6619 4.27846 5.20582 3.86738 4.879 3.17562C4.77022 2.93324 4.61803 2.54834 4.79217 2.28851C4.8351 2.11545 4.9229 2.04613 5.09607 2.00735C5.37898 1.76496 6.1848 2.0723 6.46772 2.20125C7.27257 2.52604 7.94717 2.82853 8.62178 3.28227C8.92665 3.49848 9.25347 3.90955 9.64516 4.01814H10.1027C10.7992 4.16939 11.5821 4.06662 12.2343 4.26052C13.3879 4.62894 14.4322 5.16897 15.3688 5.75359C18.2194 7.54867 20.5705 10.1009 22.1588 13.1511C22.4197 13.6484 22.5285 14.1027 22.7685 14.6218C23.2261 15.682 23.7919 16.763 24.248 17.8019C24.7055 18.8184 25.1406 19.8573 25.7933 20.7008C26.1201 21.155 27.4254 21.3925 28.0127 21.6305C28.4483 21.8244 29.1224 21.999 29.5151 22.2365C30.2546 22.6907 30.9945 23.2099 31.6906 23.7073C32.0384 23.9661 33.1271 24.5071 33.192 24.9386L33.1945 24.9269ZM11.0002 6.1317C10.6995 6.12906 10.3997 6.1654 10.1086 6.23981V6.28828H10.1515C10.3256 6.6344 10.6304 6.87242 10.848 7.1754L11.3489 8.21376L11.3919 8.16528C11.6967 7.94908 11.8494 7.60296 11.8494 7.08426C11.7187 6.93302 11.6972 6.78129 11.5884 6.63004C11.4577 6.41384 11.1748 6.30427 11.0002 6.1317Z" fill="white"/>
</g>
<path d="M4.25586 44.8906H5.16895L7.49805 50.6865L9.82227 44.8906H10.7402L7.84961 52H7.13672L4.25586 44.8906ZM3.95801 44.8906H4.76367L4.89551 49.2266V52H3.95801V44.8906ZM10.2275 44.8906H11.0332V52H10.0957V49.2266L10.2275 44.8906Z" fill="white"/>
<path d="M12.8789 44.8906L14.7246 48.46L16.5752 44.8906H17.6445L15.1934 49.3438V52H14.251V49.3438L11.7998 44.8906H12.8789Z" fill="white"/>
<path d="M22.2686 50.2031C22.2686 50.0371 22.2425 49.8906 22.1904 49.7637C22.1416 49.6335 22.0537 49.5163 21.9268 49.4121C21.8031 49.3079 21.6305 49.2087 21.4092 49.1143C21.1911 49.0199 20.9144 48.9238 20.5791 48.8262C20.2275 48.722 19.9102 48.6064 19.627 48.4795C19.3438 48.3493 19.1012 48.2012 18.8994 48.0352C18.6976 47.8691 18.543 47.6787 18.4355 47.4639C18.3281 47.249 18.2744 47.0033 18.2744 46.7266C18.2744 46.4499 18.3314 46.1943 18.4453 45.96C18.5592 45.7256 18.722 45.5221 18.9336 45.3496C19.1484 45.1738 19.404 45.0371 19.7002 44.9395C19.9964 44.8418 20.3268 44.793 20.6914 44.793C21.2253 44.793 21.6777 44.8955 22.0488 45.1006C22.4232 45.3024 22.708 45.5677 22.9033 45.8965C23.0986 46.222 23.1963 46.5703 23.1963 46.9414H22.2588C22.2588 46.6745 22.2018 46.4385 22.0879 46.2334C21.974 46.0251 21.8014 45.8623 21.5703 45.7451C21.3392 45.6247 21.0462 45.5645 20.6914 45.5645C20.3561 45.5645 20.0794 45.6149 19.8613 45.7158C19.6432 45.8167 19.4805 45.9535 19.373 46.126C19.2689 46.2985 19.2168 46.4954 19.2168 46.7168C19.2168 46.8665 19.2477 47.0033 19.3096 47.127C19.3747 47.2474 19.474 47.3597 19.6074 47.4639C19.7441 47.568 19.9167 47.6641 20.125 47.752C20.3366 47.8398 20.5889 47.9245 20.8818 48.0059C21.2855 48.1198 21.6338 48.2467 21.9268 48.3867C22.2197 48.5267 22.4606 48.6846 22.6494 48.8604C22.8415 49.0329 22.9831 49.2298 23.0742 49.4512C23.1686 49.6693 23.2158 49.9167 23.2158 50.1934C23.2158 50.4831 23.1572 50.7451 23.04 50.9795C22.9229 51.2139 22.7552 51.4141 22.5371 51.5801C22.319 51.7461 22.057 51.8747 21.751 51.9658C21.4482 52.0537 21.1097 52.0977 20.7354 52.0977C20.4066 52.0977 20.0827 52.0521 19.7637 51.9609C19.4479 51.8698 19.1598 51.7331 18.8994 51.5508C18.6423 51.3685 18.4355 51.1439 18.2793 50.877C18.1263 50.6068 18.0498 50.2943 18.0498 49.9395H18.9873C18.9873 50.1836 19.0345 50.3936 19.1289 50.5693C19.2233 50.7419 19.3519 50.8851 19.5146 50.999C19.6807 51.113 19.8678 51.1976 20.0762 51.2529C20.2878 51.305 20.5075 51.3311 20.7354 51.3311C21.0641 51.3311 21.3424 51.2855 21.5703 51.1943C21.7982 51.1032 21.9707 50.973 22.0879 50.8037C22.2083 50.6344 22.2686 50.4342 22.2686 50.2031Z" fill="white"/>
<path d="M28.0645 51.1846L29.8711 52.6152L29.2363 53.2012L27.459 51.79L28.0645 51.1846ZM29.8467 48.2207V48.6699C29.8467 49.2038 29.7799 49.6823 29.6465 50.1055C29.513 50.5286 29.321 50.8883 29.0703 51.1846C28.8197 51.4808 28.5186 51.707 28.167 51.8633C27.8187 52.0195 27.4281 52.0977 26.9951 52.0977C26.5752 52.0977 26.1895 52.0195 25.8379 51.8633C25.4896 51.707 25.1868 51.4808 24.9297 51.1846C24.6758 50.8883 24.4788 50.5286 24.3389 50.1055C24.1989 49.6823 24.1289 49.2038 24.1289 48.6699V48.2207C24.1289 47.6868 24.1973 47.21 24.334 46.79C24.474 46.3669 24.6709 46.0072 24.9248 45.7109C25.1787 45.4115 25.4798 45.1836 25.8281 45.0273C26.1797 44.8711 26.5654 44.793 26.9854 44.793C27.4183 44.793 27.8105 44.8711 28.1621 45.0273C28.5137 45.1836 28.8148 45.4115 29.0654 45.7109C29.3161 46.0072 29.5081 46.3669 29.6416 46.79C29.7783 47.21 29.8467 47.6868 29.8467 48.2207ZM28.9141 48.6699V48.2109C28.9141 47.7878 28.8701 47.4134 28.7822 47.0879C28.6976 46.7624 28.5723 46.4889 28.4062 46.2676C28.2402 46.0462 28.0384 45.8786 27.8008 45.7646C27.5632 45.6507 27.2913 45.5938 26.9854 45.5938C26.6956 45.5938 26.432 45.6507 26.1943 45.7646C25.96 45.8786 25.7581 46.0462 25.5889 46.2676C25.4196 46.4889 25.2894 46.7624 25.1982 47.0879C25.1071 47.4134 25.0615 47.7878 25.0615 48.2109V48.6699C25.0615 49.0964 25.1071 49.474 25.1982 49.8027C25.2894 50.1283 25.4196 50.4033 25.5889 50.6279C25.7614 50.8493 25.9665 51.0169 26.2041 51.1309C26.4417 51.2448 26.7054 51.3018 26.9951 51.3018C27.3011 51.3018 27.5729 51.2448 27.8105 51.1309C28.0482 51.0169 28.2484 50.8493 28.4111 50.6279C28.5771 50.4033 28.7025 50.1283 28.7871 49.8027C28.8717 49.474 28.9141 49.0964 28.9141 48.6699Z" fill="white"/>
<path d="M35.6133 51.2334V52H32.0586V51.2334H35.6133ZM32.2441 44.8906V52H31.3018V44.8906H32.2441Z" fill="white"/>
</svg>
