<svg width="38" height="56" viewBox="0 0 38 56" fill="none" xmlns="http://www.w3.org/2000/svg">
<path d="M6.49316 44.8906V52H5.5459L1.9668 46.5166V52H1.02441V44.8906H1.9668L5.56055 50.3887V44.8906H6.49316Z" fill="white"/>
<path d="M13.6367 48.2207V48.6699C13.6367 49.2038 13.57 49.6823 13.4365 50.1055C13.3031 50.5286 13.111 50.8883 12.8604 51.1846C12.6097 51.4808 12.3086 51.707 11.957 51.8633C11.6087 52.0195 11.2181 52.0977 10.7852 52.0977C10.3652 52.0977 9.97949 52.0195 9.62793 51.8633C9.27962 51.707 8.97689 51.4808 8.71973 51.1846C8.46582 50.8883 8.26888 50.5286 8.12891 50.1055C7.98893 49.6823 7.91895 49.2038 7.91895 48.6699V48.2207C7.91895 47.6868 7.9873 47.21 8.12402 46.79C8.264 46.3669 8.46094 46.0072 8.71484 45.7109C8.96875 45.4115 9.26986 45.1836 9.61816 45.0273C9.96973 44.8711 10.3555 44.793 10.7754 44.793C11.2083 44.793 11.599 44.8711 11.9473 45.0273C12.2988 45.1836 12.5999 45.4115 12.8506 45.7109C13.1045 46.0072 13.2982 46.3669 13.4316 46.79C13.5684 47.21 13.6367 47.6868 13.6367 48.2207ZM12.7041 48.6699V48.2109C12.7041 47.7878 12.6602 47.4134 12.5723 47.0879C12.4876 46.7624 12.3623 46.4889 12.1963 46.2676C12.0303 46.0462 11.8268 45.8786 11.5859 45.7646C11.3483 45.6507 11.0781 45.5938 10.7754 45.5938C10.4824 45.5938 10.2171 45.6507 9.97949 45.7646C9.74512 45.8786 9.54329 46.0462 9.37402 46.2676C9.20801 46.4889 9.07943 46.7624 8.98828 47.0879C8.89714 47.4134 8.85156 47.7878 8.85156 48.2109V48.6699C8.85156 49.0964 8.89714 49.474 8.98828 49.8027C9.07943 50.1283 9.20964 50.4033 9.37891 50.6279C9.55143 50.8493 9.75488 51.0169 9.98926 51.1309C10.2269 51.2448 10.4922 51.3018 10.7852 51.3018C11.0911 51.3018 11.363 51.2448 11.6006 51.1309C11.8382 51.0169 12.0384 50.8493 12.2012 50.6279C12.3672 50.4033 12.4925 50.1283 12.5771 49.8027C12.6618 49.474 12.7041 49.0964 12.7041 48.6699Z" fill="white"/>
<path d="M17.5381 44.8906V52H16.6104V44.8906H17.5381ZM19.8232 44.8906V45.6621H14.3301V44.8906H19.8232Z" fill="white"/>
<path d="M21.8887 44.8906V52H20.9463V44.8906H21.8887Z" fill="white"/>
<path d="M29.0762 48.2207V48.6699C29.0762 49.2038 29.0094 49.6823 28.876 50.1055C28.7425 50.5286 28.5505 50.8883 28.2998 51.1846C28.0492 51.4808 27.748 51.707 27.3965 51.8633C27.0482 52.0195 26.6576 52.0977 26.2246 52.0977C25.8047 52.0977 25.4189 52.0195 25.0674 51.8633C24.7191 51.707 24.4163 51.4808 24.1592 51.1846C23.9053 50.8883 23.7083 50.5286 23.5684 50.1055C23.4284 49.6823 23.3584 49.2038 23.3584 48.6699V48.2207C23.3584 47.6868 23.4268 47.21 23.5635 46.79C23.7035 46.3669 23.9004 46.0072 24.1543 45.7109C24.4082 45.4115 24.7093 45.1836 25.0576 45.0273C25.4092 44.8711 25.7949 44.793 26.2148 44.793C26.6478 44.793 27.0384 44.8711 27.3867 45.0273C27.7383 45.1836 28.0394 45.4115 28.29 45.7109C28.5439 46.0072 28.7376 46.3669 28.8711 46.79C29.0078 47.21 29.0762 47.6868 29.0762 48.2207ZM28.1436 48.6699V48.2109C28.1436 47.7878 28.0996 47.4134 28.0117 47.0879C27.9271 46.7624 27.8018 46.4889 27.6357 46.2676C27.4697 46.0462 27.2663 45.8786 27.0254 45.7646C26.7878 45.6507 26.5176 45.5938 26.2148 45.5938C25.9219 45.5938 25.6566 45.6507 25.4189 45.7646C25.1846 45.8786 24.9827 46.0462 24.8135 46.2676C24.6475 46.4889 24.5189 46.7624 24.4277 47.0879C24.3366 47.4134 24.291 47.7878 24.291 48.2109V48.6699C24.291 49.0964 24.3366 49.474 24.4277 49.8027C24.5189 50.1283 24.6491 50.4033 24.8184 50.6279C24.9909 50.8493 25.1943 51.0169 25.4287 51.1309C25.6663 51.2448 25.9316 51.3018 26.2246 51.3018C26.5306 51.3018 26.8024 51.2448 27.04 51.1309C27.2777 51.0169 27.4779 50.8493 27.6406 50.6279C27.8066 50.4033 27.932 50.1283 28.0166 49.8027C28.1012 49.474 28.1436 49.0964 28.1436 48.6699Z" fill="white"/>
<path d="M35.9561 44.8906V52H35.0088L31.4297 46.5166V52H30.4873V44.8906H31.4297L35.0234 50.3887V44.8906H35.9561Z" fill="white"/>
<path fill-rule="evenodd" clip-rule="evenodd" d="M8.55911 5.69471C9.54928 6.49919 9.92074 6.43781 11.7801 6.31374L29.3094 5.26119C29.6812 5.26119 29.372 4.8903 29.248 4.82867L26.3368 2.72407C25.779 2.29098 25.0358 1.79502 23.6114 1.91909L6.63783 3.15709C6.0188 3.21846 5.89516 3.52798 6.14167 3.77605L8.55911 5.69471ZM9.61154 9.77991V28.2237C9.61154 29.215 10.1069 29.5858 11.2217 29.5245L30.4864 28.4098C31.6018 28.3484 31.7261 27.6667 31.7261 26.8614V8.54135C31.7261 7.73743 31.4168 7.30391 30.734 7.36579L10.6023 8.54135C9.8593 8.60379 9.61154 8.97543 9.61154 9.77991ZM28.6296 10.7693C28.7531 11.3269 28.6296 11.8839 28.0709 11.9466L27.1427 12.1316V25.748C26.3368 26.1811 25.5937 26.4288 24.9744 26.4288C23.9829 26.4288 23.7346 26.1191 22.9919 25.1912L16.9203 15.6596V24.8817L18.8416 25.3152C18.8416 25.3152 18.8416 26.4288 17.2915 26.4288L13.0183 26.6767C12.8942 26.4288 13.0183 25.8104 13.4518 25.6865L14.5669 25.3774V13.1841L13.0186 13.06C12.8945 12.5024 13.2037 11.6984 14.0716 11.6361L18.6557 11.327L24.9744 20.9827V12.441L23.3634 12.2562C23.2397 11.5745 23.7346 11.0795 24.3541 11.0182L28.6296 10.7693ZM5.21269 1.48607L22.868 0.185878C25.0361 -6.935e-05 25.5939 0.124501 26.9566 1.11436L32.5924 5.07549C33.5223 5.75665 33.8323 5.9421 33.8323 6.68463V28.4098C33.8323 29.7713 33.3362 30.5766 31.6021 30.6997L11.0991 31.9379C9.7973 31.9999 9.17777 31.8144 8.49604 30.9474L4.34577 25.5626C3.60217 24.5714 3.29291 23.8298 3.29291 22.9623V3.65155C3.29291 2.53812 3.78906 1.60932 5.21269 1.48607Z" fill="white"/>
</svg>
