<svg width="50" height="56" viewBox="0 0 50 56" fill="none" xmlns="http://www.w3.org/2000/svg">
<path d="M31.5966 14.9524C31.7783 15.1514 31.8214 15.4932 31.7264 15.9772C31.6271 16.4814 31.436 16.841 31.1528 17.0566C30.8694 17.2722 30.4385 17.38 29.8597 17.38H28.9864L29.5225 14.6539H30.506C31.0515 14.6539 31.4149 14.7535 31.5966 14.9524ZM19.3021 14.6539H18.3185L17.7824 17.38H18.6556C19.2342 17.38 19.6654 17.2722 19.9488 17.0566C20.232 16.841 20.423 16.4813 20.5223 15.9772C20.6173 15.4931 20.5742 15.1514 20.3925 14.9524C20.2109 14.7535 19.8475 14.6539 19.3021 14.6539ZM37 16.5C37 20.0899 31.4035 23 24.5 23C17.5965 23 12 20.0899 12 16.5C12 12.9102 17.5965 10 24.5 10C31.4035 10 37 12.9102 37 16.5ZM21.6889 16.9491C21.8377 16.6856 21.9435 16.3948 22.0061 16.0768C22.1579 15.3046 22.0433 14.7032 21.6625 14.2723C21.2818 13.8413 20.6759 13.626 19.8456 13.626H17.0852L15.8045 20.1398H17.2401L17.5805 18.4082H18.8101C19.3525 18.4082 19.7989 18.3519 20.1493 18.239C20.4996 18.1264 20.818 17.9376 21.1046 17.6723C21.3451 17.4537 21.5398 17.2128 21.6889 16.9491ZM26.7414 18.4082L27.3373 15.3767C27.4586 14.7603 27.3676 14.3142 27.0647 14.0389C26.7616 13.7638 26.2111 13.626 25.4127 13.626H24.1439L24.4845 11.8941H23.0603L21.7794 18.4081H23.2036L23.9372 14.6763H25.0755C25.4399 14.6763 25.6781 14.7358 25.79 14.8551C25.9019 14.9744 25.9257 15.198 25.8612 15.5258L25.2946 18.4081H26.7414V18.4082ZM32.8665 14.2723C32.4859 13.8414 31.88 13.626 31.0497 13.626H28.2892L27.0085 20.1398H28.4441L28.7844 18.4082H30.0141C30.5565 18.4082 31.0029 18.3519 31.3532 18.2391C31.7036 18.1265 32.022 17.9377 32.3086 17.6723C32.5493 17.4537 32.7438 17.2128 32.8929 16.9491C33.0418 16.6857 33.1474 16.3949 33.2101 16.0768C33.3619 15.3046 33.2474 14.7032 32.8665 14.2723Z" fill="white"/>
<path d="M18.5693 49.2119H16.6699V48.4453H18.5693C18.9372 48.4453 19.235 48.3867 19.4629 48.2695C19.6908 48.1523 19.8568 47.9896 19.9609 47.7812C20.0684 47.5729 20.1221 47.3353 20.1221 47.0684C20.1221 46.8242 20.0684 46.5947 19.9609 46.3799C19.8568 46.165 19.6908 45.9925 19.4629 45.8623C19.235 45.7288 18.9372 45.6621 18.5693 45.6621H16.8896V52H15.9473V44.8906H18.5693C19.1064 44.8906 19.5605 44.9834 19.9316 45.1689C20.3027 45.3545 20.5843 45.6117 20.7764 45.9404C20.9684 46.266 21.0645 46.6387 21.0645 47.0586C21.0645 47.5143 20.9684 47.9033 20.7764 48.2256C20.5843 48.5479 20.3027 48.7936 19.9316 48.9629C19.5605 49.1289 19.1064 49.2119 18.5693 49.2119Z" fill="white"/>
<path d="M26.8994 47.9473V48.7139H23.0518V47.9473H26.8994ZM23.1982 44.8906V52H22.2559V44.8906H23.1982ZM27.7197 44.8906V52H26.7822V44.8906H27.7197Z" fill="white"/>
<path d="M32.0166 49.2119H30.1172V48.4453H32.0166C32.3844 48.4453 32.6823 48.3867 32.9102 48.2695C33.138 48.1523 33.304 47.9896 33.4082 47.7812C33.5156 47.5729 33.5693 47.3353 33.5693 47.0684C33.5693 46.8242 33.5156 46.5947 33.4082 46.3799C33.304 46.165 33.138 45.9925 32.9102 45.8623C32.6823 45.7288 32.3844 45.6621 32.0166 45.6621H30.3369V52H29.3945V44.8906H32.0166C32.5537 44.8906 33.0078 44.9834 33.3789 45.1689C33.75 45.3545 34.0316 45.6117 34.2236 45.9404C34.4157 46.266 34.5117 46.6387 34.5117 47.0586C34.5117 47.5143 34.4157 47.9033 34.2236 48.2256C34.0316 48.5479 33.75 48.7936 33.3789 48.9629C33.0078 49.1289 32.5537 49.2119 32.0166 49.2119Z" fill="white"/>
</svg>
