<svg width="284" height="210" viewBox="0 0 284 210" fill="none" xmlns="http://www.w3.org/2000/svg">
<path d="M268.797 0.953369H15.2034C6.81058 0.953369 0.00683594 7.75711 0.00683594 16.15V194.71C0.00683594 203.103 6.81058 209.906 15.2034 209.906H268.797C277.189 209.906 283.993 203.103 283.993 194.71V16.15C283.993 7.75711 277.189 0.953369 268.797 0.953369Z" fill="#111215"/>
<path d="M268.797 1.42798H15.2034C7.07288 1.42798 0.48175 8.01911 0.48175 16.1497V194.71C0.48175 202.84 7.07288 209.431 15.2034 209.431H268.797C276.927 209.431 283.518 202.84 283.518 194.71V16.1497C283.518 8.01911 276.927 1.42798 268.797 1.42798Z" fill="#1A1B1E"/>
<path fill-rule="evenodd" clip-rule="evenodd" d="M15.2035 1.90291C7.33517 1.90291 0.956653 8.28142 0.956653 16.1497V194.71C0.956653 202.578 7.33516 208.956 15.2035 208.956H268.797C276.665 208.956 283.043 202.578 283.043 194.71V16.1497C283.043 8.28142 276.665 1.90291 268.797 1.90291H15.2035ZM0.00686646 16.1497C0.00686646 7.75687 6.81061 0.953125 15.2035 0.953125H268.797C277.189 0.953125 283.993 7.75687 283.993 16.1497V194.71C283.993 203.103 277.189 209.906 268.797 209.906H15.2035C6.81061 209.906 0.00686646 203.103 0.00686646 194.71V16.1497Z" fill="url(#paint0_linear_157_48)"/>
<path fill-rule="evenodd" clip-rule="evenodd" d="M61.743 53.1915C61.743 51.0933 63.444 49.3923 65.5422 49.3923H111.132C113.23 49.3923 114.931 51.0933 114.931 53.1915C114.931 55.2897 113.23 56.9906 111.132 56.9906H65.5422C63.444 56.9906 61.743 55.2897 61.743 53.1915Z" fill="#6967E2"/>
<path fill-rule="evenodd" clip-rule="evenodd" d="M61.743 115.878C61.743 113.779 63.444 112.078 65.5422 112.078H111.132C113.23 112.078 114.931 113.779 114.931 115.878C114.931 117.976 113.23 119.677 111.132 119.677H65.5422C63.444 119.677 61.743 117.976 61.743 115.878Z" fill="#6967E2"/>
<path fill-rule="evenodd" clip-rule="evenodd" d="M61.743 89.2836C61.743 88.2345 62.5935 87.384 63.6426 87.384H219.408C220.457 87.384 221.307 88.2345 221.307 89.2836C221.307 90.3327 220.457 91.1832 219.408 91.1832H63.6426C62.5935 91.1832 61.743 90.3327 61.743 89.2836Z" fill="white"/>
<path fill-rule="evenodd" clip-rule="evenodd" d="M61.743 151.97C61.743 150.92 62.5935 150.07 63.6426 150.07H219.408C220.457 150.07 221.307 150.92 221.307 151.97C221.307 153.019 220.457 153.869 219.408 153.869H63.6426C62.5935 153.869 61.743 153.019 61.743 151.97Z" fill="white"/>
<path fill-rule="evenodd" clip-rule="evenodd" d="M61.743 96.8818C61.743 95.8326 62.5935 94.9822 63.6426 94.9822H189.014C190.064 94.9822 190.914 95.8326 190.914 96.8818C190.914 97.9313 190.064 98.7813 189.014 98.7813H63.6426C62.5935 98.7813 61.743 97.9313 61.743 96.8818Z" fill="white"/>
<path fill-rule="evenodd" clip-rule="evenodd" d="M61.743 159.568C61.743 158.518 62.5935 157.668 63.6426 157.668H189.014C190.064 157.668 190.914 158.518 190.914 159.568C190.914 160.617 190.064 161.467 189.014 161.467H63.6426C62.5935 161.467 61.743 160.617 61.743 159.568Z" fill="white"/>
<path fill-rule="evenodd" clip-rule="evenodd" d="M61.743 68.3883C61.743 66.2901 63.444 64.5891 65.5422 64.5891H217.508C219.606 64.5891 221.307 66.2901 221.307 68.3883V75.9866C221.307 78.0847 219.606 79.7857 217.508 79.7857H65.5422C63.444 79.7857 61.743 78.0847 61.743 75.9866V68.3883Z" fill="#7A79CD"/>
<path fill-rule="evenodd" clip-rule="evenodd" d="M61.743 131.074C61.743 128.976 63.444 127.275 65.5422 127.275H217.508C219.606 127.275 221.307 128.976 221.307 131.074V138.673C221.307 140.771 219.606 142.472 217.508 142.472H65.5422C63.444 142.472 61.743 140.771 61.743 138.673V131.074Z" fill="#7A79CD"/>
<defs>
<linearGradient id="paint0_linear_157_48" x1="142" y1="0.953125" x2="142" y2="209.906" gradientUnits="userSpaceOnUse">
<stop stop-color="#CEC3F9"/>
<stop offset="1" stop-color="#5B4BB9"/>
</linearGradient>
</defs>
</svg>
