<svg width="81" height="56" viewBox="0 0 81 56" fill="none" xmlns="http://www.w3.org/2000/svg">
<path d="M41.5 3C43.9723 3 46.389 3.73311 48.4446 5.10663C50.5002 6.48015 52.1024 8.43238 53.0485 10.7165C53.9946 13.0005 54.2421 15.5139 53.7598 17.9386C53.2775 20.3634 52.087 22.5907 50.3388 24.3388C48.5907 26.087 46.3634 27.2775 43.9386 27.7598C41.5139 28.2421 39.0005 27.9946 36.7165 27.0485C34.4324 26.1024 32.4801 24.5002 31.1066 22.4446C29.7331 20.389 29 17.9723 29 15.5C29 12.1848 30.317 9.00537 32.6612 6.66116C35.0054 4.31696 38.1848 3 41.5 3ZM39 19.6625C39.188 20.2734 39.188 20.9266 39 21.5375C39 21.6 39 21.6625 38.925 21.75C38.85 21.8375 38.925 21.8375 38.8375 21.9C38.6928 22.2087 38.4986 22.4916 38.2625 22.7375C37.5375 23.5375 36.5 23.8375 36.0875 23.5875C35.675 23.3375 35.875 22.1875 36.7 21.3C37.346 20.6627 38.0885 20.1312 38.9 19.725L39 19.6625ZM49.3375 8.4125C48.775 6.1875 45.0875 5.4625 41.6125 6.7C39.4338 7.41289 37.4165 8.54686 35.675 10.0375C33.7625 11.8375 33.45 13.4 33.575 14.05C34 16.35 37.175 17.8625 38.475 18.975C38.1 19.1625 35.3 20.575 34.625 22.025C34.3396 22.4779 34.2451 23.0254 34.3622 23.5477C34.4793 24.0701 34.7985 24.5248 35.25 24.8125C36.0516 25.0059 36.8937 24.9435 37.6581 24.6342C38.4226 24.3248 39.071 23.784 39.5125 23.0875C39.8776 22.5252 40.1061 21.8854 40.1799 21.2191C40.2537 20.5528 40.1707 19.8785 39.9375 19.25C40.564 19.1035 41.2116 19.0697 41.85 19.15C44.05 19.4125 44.475 20.775 44.35 21.35C44.3128 21.5542 44.2321 21.7481 44.1135 21.9184C43.9949 22.0888 43.8411 22.2317 43.6625 22.3375C43.5125 22.425 43.4625 22.4625 43.475 22.5375C43.4875 22.6125 43.5625 22.6375 43.6875 22.6125C44.0285 22.5198 44.3322 22.3231 44.5562 22.0497C44.7802 21.7764 44.9135 21.4401 44.9375 21.0875C44.9375 19.7375 43.6875 18.2375 41.425 18.275C40.7643 18.2595 40.1056 18.3524 39.475 18.55L39.375 18.4375C37.9625 16.9375 35.3625 15.9375 35.475 13.85C35.475 13.1125 35.7625 11.1875 40.475 8.85C44.325 6.925 47.4125 7.45 47.975 8.6375C48.7375 10.3 46.325 13.4125 42.325 13.8625C41.887 13.9454 41.4362 13.9312 41.0043 13.8211C40.5723 13.711 40.1698 13.5075 39.825 13.225C39.6125 13.0125 39.5875 12.975 39.5125 13.0125C39.4375 13.05 39.5125 13.3 39.5125 13.425C39.8304 13.9725 40.3441 14.379 40.95 14.5625C42.5265 14.9027 44.17 14.741 45.65 14.1C48 13.15 49.9 10.5 49.3375 8.35V8.4125Z" fill="white"/>
<path d="M33.4512 50.2031C33.4512 50.0371 33.4251 49.8906 33.373 49.7637C33.3242 49.6335 33.2363 49.5163 33.1094 49.4121C32.9857 49.3079 32.8132 49.2087 32.5918 49.1143C32.3737 49.0199 32.097 48.9238 31.7617 48.8262C31.4102 48.722 31.0928 48.6064 30.8096 48.4795C30.5264 48.3493 30.2839 48.2012 30.082 48.0352C29.8802 47.8691 29.7256 47.6787 29.6182 47.4639C29.5107 47.249 29.457 47.0033 29.457 46.7266C29.457 46.4499 29.514 46.1943 29.6279 45.96C29.7419 45.7256 29.9046 45.5221 30.1162 45.3496C30.3311 45.1738 30.5866 45.0371 30.8828 44.9395C31.179 44.8418 31.5094 44.793 31.874 44.793C32.4079 44.793 32.8604 44.8955 33.2314 45.1006C33.6058 45.3024 33.8906 45.5677 34.0859 45.8965C34.2812 46.222 34.3789 46.5703 34.3789 46.9414H33.4414C33.4414 46.6745 33.3844 46.4385 33.2705 46.2334C33.1566 46.0251 32.984 45.8623 32.7529 45.7451C32.5218 45.6247 32.2288 45.5645 31.874 45.5645C31.5387 45.5645 31.262 45.6149 31.0439 45.7158C30.8258 45.8167 30.6631 45.9535 30.5557 46.126C30.4515 46.2985 30.3994 46.4954 30.3994 46.7168C30.3994 46.8665 30.4303 47.0033 30.4922 47.127C30.5573 47.2474 30.6566 47.3597 30.79 47.4639C30.9268 47.568 31.0993 47.6641 31.3076 47.752C31.5192 47.8398 31.7715 47.9245 32.0645 48.0059C32.4681 48.1198 32.8164 48.2467 33.1094 48.3867C33.4023 48.5267 33.6432 48.6846 33.832 48.8604C34.0241 49.0329 34.1657 49.2298 34.2568 49.4512C34.3512 49.6693 34.3984 49.9167 34.3984 50.1934C34.3984 50.4831 34.3398 50.7451 34.2227 50.9795C34.1055 51.2139 33.9378 51.4141 33.7197 51.5801C33.5016 51.7461 33.2396 51.8747 32.9336 51.9658C32.6309 52.0537 32.2923 52.0977 31.918 52.0977C31.5892 52.0977 31.2653 52.0521 30.9463 51.9609C30.6305 51.8698 30.3424 51.7331 30.082 51.5508C29.8249 51.3685 29.6182 51.1439 29.4619 50.877C29.3089 50.6068 29.2324 50.2943 29.2324 49.9395H30.1699C30.1699 50.1836 30.2171 50.3936 30.3115 50.5693C30.4059 50.7419 30.5345 50.8851 30.6973 50.999C30.8633 51.113 31.0505 51.1976 31.2588 51.2529C31.4704 51.305 31.6901 51.3311 31.918 51.3311C32.2467 51.3311 32.5251 51.2855 32.7529 51.1943C32.9808 51.1032 33.1533 50.973 33.2705 50.8037C33.391 50.6344 33.4512 50.4342 33.4512 50.2031Z" fill="white"/>
<path d="M39.8916 49.7393H40.8291C40.7803 50.1885 40.6517 50.5905 40.4434 50.9453C40.235 51.3001 39.9404 51.5817 39.5596 51.79C39.1787 51.9951 38.7035 52.0977 38.1338 52.0977C37.7171 52.0977 37.3379 52.0195 36.9961 51.8633C36.6576 51.707 36.3662 51.4857 36.1221 51.1992C35.8779 50.9095 35.6891 50.5628 35.5557 50.1592C35.4255 49.7523 35.3604 49.2998 35.3604 48.8018V48.0938C35.3604 47.5957 35.4255 47.1449 35.5557 46.7412C35.6891 46.3343 35.8796 45.986 36.127 45.6963C36.3776 45.4066 36.6787 45.1836 37.0303 45.0273C37.3818 44.8711 37.7773 44.793 38.2168 44.793C38.7539 44.793 39.208 44.8939 39.5791 45.0957C39.9502 45.2975 40.2383 45.5775 40.4434 45.9355C40.6517 46.2904 40.7803 46.7021 40.8291 47.1709H39.8916C39.846 46.8389 39.7614 46.554 39.6377 46.3164C39.514 46.0755 39.3382 45.89 39.1104 45.7598C38.8825 45.6296 38.5846 45.5645 38.2168 45.5645C37.901 45.5645 37.6227 45.6247 37.3818 45.7451C37.1442 45.8656 36.944 46.0365 36.7812 46.2578C36.6217 46.4792 36.5013 46.7445 36.4199 47.0537C36.3385 47.363 36.2979 47.7064 36.2979 48.084V48.8018C36.2979 49.1501 36.3337 49.4772 36.4053 49.7832C36.4801 50.0892 36.5924 50.3577 36.7422 50.5889C36.8919 50.82 37.0824 51.0023 37.3135 51.1357C37.5446 51.266 37.818 51.3311 38.1338 51.3311C38.5342 51.3311 38.8532 51.2676 39.0908 51.1406C39.3285 51.0137 39.5075 50.8314 39.6279 50.5938C39.7516 50.3561 39.8395 50.0713 39.8916 49.7393Z" fill="white"/>
<path d="M45.9023 50.2031C45.9023 50.0371 45.8763 49.8906 45.8242 49.7637C45.7754 49.6335 45.6875 49.5163 45.5605 49.4121C45.4368 49.3079 45.2643 49.2087 45.043 49.1143C44.8249 49.0199 44.5482 48.9238 44.2129 48.8262C43.8613 48.722 43.5439 48.6064 43.2607 48.4795C42.9775 48.3493 42.735 48.2012 42.5332 48.0352C42.3314 47.8691 42.1768 47.6787 42.0693 47.4639C41.9619 47.249 41.9082 47.0033 41.9082 46.7266C41.9082 46.4499 41.9652 46.1943 42.0791 45.96C42.193 45.7256 42.3558 45.5221 42.5674 45.3496C42.7822 45.1738 43.0378 45.0371 43.334 44.9395C43.6302 44.8418 43.9606 44.793 44.3252 44.793C44.859 44.793 45.3115 44.8955 45.6826 45.1006C46.057 45.3024 46.3418 45.5677 46.5371 45.8965C46.7324 46.222 46.8301 46.5703 46.8301 46.9414H45.8926C45.8926 46.6745 45.8356 46.4385 45.7217 46.2334C45.6077 46.0251 45.4352 45.8623 45.2041 45.7451C44.973 45.6247 44.68 45.5645 44.3252 45.5645C43.9899 45.5645 43.7132 45.6149 43.4951 45.7158C43.277 45.8167 43.1143 45.9535 43.0068 46.126C42.9027 46.2985 42.8506 46.4954 42.8506 46.7168C42.8506 46.8665 42.8815 47.0033 42.9434 47.127C43.0085 47.2474 43.1077 47.3597 43.2412 47.4639C43.3779 47.568 43.5505 47.6641 43.7588 47.752C43.9704 47.8398 44.2227 47.9245 44.5156 48.0059C44.9193 48.1198 45.2676 48.2467 45.5605 48.3867C45.8535 48.5267 46.0944 48.6846 46.2832 48.8604C46.4753 49.0329 46.6169 49.2298 46.708 49.4512C46.8024 49.6693 46.8496 49.9167 46.8496 50.1934C46.8496 50.4831 46.791 50.7451 46.6738 50.9795C46.5566 51.2139 46.389 51.4141 46.1709 51.5801C45.9528 51.7461 45.6908 51.8747 45.3848 51.9658C45.082 52.0537 44.7435 52.0977 44.3691 52.0977C44.0404 52.0977 43.7165 52.0521 43.3975 51.9609C43.0817 51.8698 42.7936 51.7331 42.5332 51.5508C42.276 51.3685 42.0693 51.1439 41.9131 50.877C41.7601 50.6068 41.6836 50.2943 41.6836 49.9395H42.6211C42.6211 50.1836 42.6683 50.3936 42.7627 50.5693C42.8571 50.7419 42.9857 50.8851 43.1484 50.999C43.3145 51.113 43.5016 51.1976 43.71 51.2529C43.9215 51.305 44.1413 51.3311 44.3691 51.3311C44.6979 51.3311 44.9762 51.2855 45.2041 51.1943C45.432 51.1032 45.6045 50.973 45.7217 50.8037C45.8421 50.6344 45.9023 50.4342 45.9023 50.2031Z" fill="white"/>
<path d="M51.8398 50.2031C51.8398 50.0371 51.8138 49.8906 51.7617 49.7637C51.7129 49.6335 51.625 49.5163 51.498 49.4121C51.3743 49.3079 51.2018 49.2087 50.9805 49.1143C50.7624 49.0199 50.4857 48.9238 50.1504 48.8262C49.7988 48.722 49.4814 48.6064 49.1982 48.4795C48.915 48.3493 48.6725 48.2012 48.4707 48.0352C48.2689 47.8691 48.1143 47.6787 48.0068 47.4639C47.8994 47.249 47.8457 47.0033 47.8457 46.7266C47.8457 46.4499 47.9027 46.1943 48.0166 45.96C48.1305 45.7256 48.2933 45.5221 48.5049 45.3496C48.7197 45.1738 48.9753 45.0371 49.2715 44.9395C49.5677 44.8418 49.8981 44.793 50.2627 44.793C50.7965 44.793 51.249 44.8955 51.6201 45.1006C51.9945 45.3024 52.2793 45.5677 52.4746 45.8965C52.6699 46.222 52.7676 46.5703 52.7676 46.9414H51.8301C51.8301 46.6745 51.7731 46.4385 51.6592 46.2334C51.5452 46.0251 51.3727 45.8623 51.1416 45.7451C50.9105 45.6247 50.6175 45.5645 50.2627 45.5645C49.9274 45.5645 49.6507 45.6149 49.4326 45.7158C49.2145 45.8167 49.0518 45.9535 48.9443 46.126C48.8402 46.2985 48.7881 46.4954 48.7881 46.7168C48.7881 46.8665 48.819 47.0033 48.8809 47.127C48.946 47.2474 49.0452 47.3597 49.1787 47.4639C49.3154 47.568 49.488 47.6641 49.6963 47.752C49.9079 47.8398 50.1602 47.9245 50.4531 48.0059C50.8568 48.1198 51.2051 48.2467 51.498 48.3867C51.791 48.5267 52.0319 48.6846 52.2207 48.8604C52.4128 49.0329 52.5544 49.2298 52.6455 49.4512C52.7399 49.6693 52.7871 49.9167 52.7871 50.1934C52.7871 50.4831 52.7285 50.7451 52.6113 50.9795C52.4941 51.2139 52.3265 51.4141 52.1084 51.5801C51.8903 51.7461 51.6283 51.8747 51.3223 51.9658C51.0195 52.0537 50.681 52.0977 50.3066 52.0977C49.9779 52.0977 49.654 52.0521 49.335 51.9609C49.0192 51.8698 48.7311 51.7331 48.4707 51.5508C48.2135 51.3685 48.0068 51.1439 47.8506 50.877C47.6976 50.6068 47.6211 50.2943 47.6211 49.9395H48.5586C48.5586 50.1836 48.6058 50.3936 48.7002 50.5693C48.7946 50.7419 48.9232 50.8851 49.0859 50.999C49.252 51.113 49.4391 51.1976 49.6475 51.2529C49.859 51.305 50.0788 51.3311 50.3066 51.3311C50.6354 51.3311 50.9137 51.2855 51.1416 51.1943C51.3695 51.1032 51.542 50.973 51.6592 50.8037C51.7796 50.6344 51.8398 50.4342 51.8398 50.2031Z" fill="white"/>
</svg>
