<svg width="14" height="12" viewBox="0 0 14 12" fill="none" xmlns="http://www.w3.org/2000/svg">
<path d="M11.8864 3.27053C11.8943 3.38399 11.8943 3.49746 11.8943 3.61197C11.8943 7.10112 9.2381 11.1252 4.38108 11.1252V11.1231C2.94631 11.1252 1.54134 10.7142 0.333496 9.9393C0.542116 9.9644 0.751796 9.9769 0.961986 9.9775C2.15101 9.9785 3.30605 9.5795 4.24147 8.8449C3.11154 8.8235 2.12069 8.0867 1.77454 7.01118C2.17036 7.08752 2.5782 7.07184 2.9667 6.96569C1.7348 6.7168 0.848526 5.63445 0.848526 4.37746C0.848526 4.36595 0.848526 4.35497 0.848526 4.34399C1.21559 4.54844 1.62657 4.6619 2.04696 4.67445C0.886696 3.89902 0.529046 2.3555 1.22971 1.1487C2.57036 2.79837 4.5484 3.80125 6.6718 3.90739C6.45899 2.99027 6.74971 2.02922 7.43572 1.38452C8.49925 0.384778 10.1719 0.436018 11.1717 1.49902C11.763 1.38242 12.3298 1.16543 12.8485 0.857978C12.6514 1.46922 12.2389 1.98844 11.6877 2.31837C12.2111 2.25667 12.7225 2.11654 13.2041 1.90268C12.8496 2.43393 12.403 2.89667 11.8864 3.27053Z" fill="white"/>
</svg>
