<svg width="34" height="56" viewBox="0 0 34 56" fill="none" xmlns="http://www.w3.org/2000/svg">
<mask id="mask0_1_780" style="mask-type:luminance" maskUnits="userSpaceOnUse" x="3" y="0" width="29" height="32">
<path d="M31.6271 0H3.18549V32H31.6271V0Z" fill="white"/>
</mask>
<g mask="url(#mask0_1_780)">
<path opacity="0.6" d="M17.7299 11.8311L7.90625 16.2988L17.7299 22.1026L27.5495 16.2988L17.7299 11.8311Z" fill="white"/>
<path opacity="0.45" d="M7.90625 16.2993L17.7299 22.1031V0L7.90625 16.2993Z" fill="#FAFAFA"/>
<path opacity="0.8" d="M17.7299 0V22.1031L27.5496 16.2993L17.7299 0Z" fill="#FAFAFA"/>
<path opacity="0.45" d="M7.90625 18.1611L17.7299 32.0006V23.9649L7.90625 18.1611Z" fill="#FAFAFA"/>
<path opacity="0.8" d="M17.7297 23.9649V32.0006L27.5572 18.1611L17.7297 23.9649Z" fill="#FAFAFA"/>
</g>
<path d="M6.9873 49.8516L8.39844 44.8906H9.08203L8.68652 46.8193L7.16797 52H6.48926L6.9873 49.8516ZM5.52734 44.8906L6.65039 49.7539L6.9873 52H6.31348L4.58984 44.8906H5.52734ZM10.9082 49.749L12.0068 44.8906H12.9492L11.2305 52H10.5566L10.9082 49.749ZM9.18457 44.8906L10.5566 49.8516L11.0547 52H10.376L8.91113 46.8193L8.51074 44.8906H9.18457Z" fill="white"/>
<path d="M18.5107 51.2334V52H14.7461V51.2334H18.5107ZM14.9365 44.8906V52H13.9941V44.8906H14.9365ZM18.0127 47.9473V48.7139H14.7461V47.9473H18.0127ZM18.4619 44.8906V45.6621H14.7461V44.8906H18.4619Z" fill="white"/>
<path d="M22.2119 48.6748H20.4102L20.4004 47.918H22.0361C22.3063 47.918 22.5423 47.8724 22.7441 47.7812C22.946 47.6901 23.1022 47.5599 23.2129 47.3906C23.3268 47.2181 23.3838 47.013 23.3838 46.7754C23.3838 46.515 23.3333 46.3034 23.2324 46.1406C23.1348 45.9746 22.9834 45.8542 22.7783 45.7793C22.5765 45.7012 22.3193 45.6621 22.0068 45.6621H20.6201V52H19.6777V44.8906H22.0068C22.3714 44.8906 22.6969 44.9281 22.9834 45.0029C23.2699 45.0745 23.5124 45.1885 23.7109 45.3447C23.9128 45.4977 24.0658 45.693 24.1699 45.9307C24.2741 46.1683 24.3262 46.4531 24.3262 46.7852C24.3262 47.0781 24.2513 47.3434 24.1016 47.5811C23.9518 47.8154 23.7435 48.0075 23.4766 48.1572C23.2129 48.307 22.9036 48.403 22.5488 48.4453L22.2119 48.6748ZM22.168 52H20.0391L20.5713 51.2334H22.168C22.4674 51.2334 22.7214 51.1813 22.9297 51.0771C23.1413 50.973 23.3024 50.8265 23.4131 50.6377C23.5238 50.4456 23.5791 50.2194 23.5791 49.959C23.5791 49.6953 23.5319 49.4674 23.4375 49.2754C23.3431 49.0833 23.195 48.9352 22.9932 48.8311C22.7913 48.7269 22.5309 48.6748 22.2119 48.6748H20.8691L20.8789 47.918H22.7148L22.915 48.1914C23.2568 48.2207 23.5465 48.3184 23.7842 48.4844C24.0218 48.6471 24.2025 48.8555 24.3262 49.1094C24.4531 49.3633 24.5166 49.6432 24.5166 49.9492C24.5166 50.3919 24.4189 50.7663 24.2236 51.0723C24.0316 51.375 23.7598 51.6061 23.4082 51.7656C23.0566 51.9219 22.6432 52 22.168 52Z" fill="white"/>
<path d="M26.9922 48.001H27.6367C27.9525 48.001 28.2129 47.9489 28.418 47.8447C28.6263 47.7373 28.7809 47.5924 28.8818 47.4102C28.986 47.2246 29.0381 47.0163 29.0381 46.7852C29.0381 46.5117 28.9925 46.2822 28.9014 46.0967C28.8102 45.9111 28.6735 45.7712 28.4912 45.6768C28.3089 45.5824 28.0778 45.5352 27.7979 45.5352C27.5439 45.5352 27.3193 45.5856 27.124 45.6865C26.932 45.7842 26.7806 45.9242 26.6699 46.1064C26.5625 46.2887 26.5088 46.5036 26.5088 46.751H25.6055C25.6055 46.3896 25.6966 46.0609 25.8789 45.7646C26.0612 45.4684 26.3167 45.2324 26.6455 45.0566C26.9775 44.8809 27.3617 44.793 27.7979 44.793C28.2275 44.793 28.6035 44.8695 28.9258 45.0225C29.248 45.1722 29.4987 45.3968 29.6777 45.6963C29.8568 45.9925 29.9463 46.362 29.9463 46.8047C29.9463 46.9837 29.904 47.1758 29.8193 47.3809C29.738 47.5827 29.6094 47.7715 29.4336 47.9473C29.2611 48.123 29.0365 48.2679 28.7598 48.3818C28.4831 48.4925 28.151 48.5479 27.7637 48.5479H26.9922V48.001ZM26.9922 48.7432V48.2012H27.7637C28.2161 48.2012 28.5905 48.2549 28.8867 48.3623C29.1829 48.4697 29.4157 48.613 29.585 48.792C29.7575 48.971 29.8779 49.168 29.9463 49.3828C30.0179 49.5944 30.0537 49.806 30.0537 50.0176C30.0537 50.3496 29.9967 50.6442 29.8828 50.9014C29.7721 51.1585 29.6143 51.3766 29.4092 51.5557C29.2074 51.7347 28.9697 51.8698 28.6963 51.9609C28.4229 52.0521 28.125 52.0977 27.8027 52.0977C27.4935 52.0977 27.2021 52.0537 26.9287 51.9658C26.6585 51.8779 26.4193 51.751 26.2109 51.585C26.0026 51.4157 25.8398 51.209 25.7227 50.9648C25.6055 50.7174 25.5469 50.4359 25.5469 50.1201H26.4502C26.4502 50.3675 26.5039 50.584 26.6113 50.7695C26.722 50.9551 26.8783 51.0999 27.0801 51.2041C27.2852 51.305 27.526 51.3555 27.8027 51.3555C28.0794 51.3555 28.3171 51.3083 28.5156 51.2139C28.7174 51.1162 28.8721 50.9697 28.9795 50.7744C29.0902 50.5791 29.1455 50.3333 29.1455 50.0371C29.1455 49.7409 29.0837 49.4984 28.96 49.3096C28.8363 49.1175 28.6605 48.9759 28.4326 48.8848C28.208 48.7904 27.9427 48.7432 27.6367 48.7432H26.9922Z" fill="white"/>
</svg>
